M48
;DRILL file {KiCad (5.0.0)} date 09/26/19 22:35:52
;FORMAT={-:-/ absolute / inch / decimal}
FMAT,2
INCH,TZ
T1C0.0295
T2C0.0315
T3C0.0354
T4C0.0394
T5C0.0433
T6C0.0472
T7C0.0551
T8C0.1969
T9C0.0787
T10C0.1260
%
G90
G05
M72
T1
X6.9874Y-1.8374
X5.9874Y-1.6874
X5.9874Y-2.0874
X6.3374Y-2.6874
X6.3374Y-3.0874
X6.2124Y-2.6874
X6.2124Y-3.0874
X7.3874Y-1.8374
X7.2374Y-1.9874
X7.6374Y-1.9874
T2
X2.8874Y-2.8624
X2.8874Y-2.7874
X3.0624Y-3.3465
X3.1624Y-2.7874
X3.2374Y-2.8624
X4.2624Y-2.8047
X4.5624Y-1.5874
X5.4624Y-3.1874
X5.4624Y-3.9374
X5.4724Y-3.2624
X5.4724Y-3.8624
X5.4921Y-3.3374
X5.4921Y-3.4124
X5.4921Y-3.4874
X5.4921Y-3.5624
X5.4921Y-3.6374
X5.4921Y-3.7124
X5.4921Y-3.7874
X5.7283Y-3.3386
X5.7283Y-3.4136
X5.7283Y-3.4886
X5.7283Y-3.5636
X5.7283Y-3.6386
X5.7283Y-3.7136
X5.7283Y-3.7886
X5.748Y-3.2636
X5.748Y-3.8636
X5.7581Y-3.1886
X5.7581Y-3.9386
X5.9874Y-2.1874
X6.4624Y-3.2124
X6.5124Y-3.7624
X6.5874Y-2.9624
X6.6624Y-2.2874
X7.2874Y-2.2874
X7.2874Y-2.5874
X6.8374Y-1.5374
X7.2374Y-1.5374
X6.1124Y-2.5624
X6.2108Y-2.5624
X6.6874Y-3.8374
X7.0874Y-3.8374
X6.3624Y-1.9874
X6.3624Y-2.3874
X6.2374Y-3.3374
X6.2374Y-3.4374
X6.2374Y-3.5374
X6.6874Y-2.4874
X6.7858Y-2.4874
X6.7874Y-2.6874
X6.7874Y-2.9874
X6.8874Y-2.6874
X6.8874Y-2.9874
X6.9874Y-2.6874
X6.9874Y-2.9874
X7.0874Y-2.6874
X7.0874Y-2.9874
X6.1124Y-1.9874
X6.1124Y-2.3874
X4.9874Y-1.1874
X4.9874Y-1.5874
X6.6374Y-1.889
X6.6374Y-1.9874
X6.789Y-3.2124
X6.8874Y-3.2124
X3.8624Y-2.4374
X4.2624Y-2.4374
X6.1374Y-1.5874
X6.1374Y-1.6661
X6.6874Y-1.4656
X6.6874Y-1.6624
X6.9374Y-1.0874
X6.9374Y-1.1874
X6.9374Y-1.2874
X6.9374Y-1.3874
X7.2374Y-1.0874
X7.2374Y-1.1874
X7.2374Y-1.2874
X7.2374Y-1.3874
X6.4624Y-2.6874
X6.4624Y-3.0874
X6.2374Y-1.9874
X6.2374Y-2.3874
X5.8874Y-2.6124
X5.9661Y-2.6124
X7.5374Y-2.1837
X7.5374Y-2.2624
X3.0624Y-2.6874
X3.4624Y-2.6874
X6.7874Y-3.3374
X6.7874Y-3.6374
X6.8874Y-3.3374
X6.8874Y-3.6374
X6.9874Y-3.3374
X6.9874Y-3.6374
X7.0874Y-3.3374
X7.0874Y-3.6374
X3.8624Y-2.6874
X4.2624Y-2.6874
X6.7874Y-1.9874
X6.7874Y-2.2874
X6.8874Y-1.9874
X6.8874Y-2.2874
X6.9874Y-1.9874
X6.9874Y-2.2874
X7.0874Y-1.9874
X7.0874Y-2.2874
X3.0624Y-2.5624
X3.4624Y-2.5624
X6.8374Y-1.6624
X7.2374Y-1.6624
X3.8624Y-2.5624
X4.2624Y-2.5624
X6.4874Y-1.9874
X6.4874Y-2.3874
X4.6374Y-1.0124
X4.7374Y-1.0124
X4.8374Y-1.0124
X3.0624Y-2.4374
X3.4624Y-2.4374
X6.5874Y-2.6874
X6.5874Y-3.0874
X7.4374Y-2.8374
X7.5374Y-2.8374
X7.6374Y-2.8374
T3
X2.7559Y-1.7717
X2.8559Y-1.7717
X2.7559Y-3.3465
X2.8559Y-3.3465
X6.4624Y-3.3374
X6.5608Y-3.5343
X6.6593Y-3.3374
T4
X7.5374Y-1.5124
X7.5374Y-1.6502
X7.4374Y-2.5374
X7.5374Y-2.5374
X7.6374Y-2.5374
X2.8624Y-2.4624
X2.8624Y-2.5624
X2.8624Y-2.6624
X7.5374Y-1.0874
X7.5374Y-1.2252
X3.563Y-2.0669
X3.6614Y-2.0669
X3.7598Y-2.0669
X5.0624Y-3.2624
X5.0624Y-3.3624
X5.0624Y-3.4624
X5.0624Y-3.5624
X5.0624Y-3.6624
X5.0624Y-3.7624
X5.0624Y-3.8624
X2.7624Y-3.0624
X2.8624Y-3.0624
X6.3124Y-1.1874
X6.4124Y-1.1874
X5.9624Y-3.2624
X5.9624Y-3.3624
X5.9624Y-3.4624
X5.9624Y-3.5624
X5.9624Y-3.6624
X5.9624Y-3.7624
X5.9624Y-3.8624
X3.563Y-3.0512
X3.6614Y-3.0512
X3.7598Y-3.0512
X2.7624Y-2.0624
X2.8624Y-2.0624
T5
X5.8374Y-1.6874
X5.8374Y-1.7874
X5.8374Y-1.8874
T6
X6.3124Y-1.4874
X6.3124Y-1.6874
T7
X5.9124Y-2.8624
X5.9124Y-3.0874
T8
X4.7244Y-2.185
X4.7244Y-2.9331
T9
X3.4882Y-1.7913
X3.8346Y-1.7913
X3.4882Y-3.3268
X3.8346Y-3.3268
T10
X6.7323Y-0.9843
X6.7323Y-4.1339
X5.315Y-4.1339
X2.5394Y-0.9764
X2.5394Y-4.1339
X5.315Y-0.9843
T4
X5.8762Y-1.148G85X5.8762Y-1.2268
G05
X5.9549Y-1.3724G85X6.0337Y-1.3724
G05
X6.1124Y-1.148G85X6.1124Y-1.2268
G05
T0
M30
