  0
SECTION
  2
HEADER
  9
$ACADVER
  1
AC1009
  9
$EXTMIN
 10
0.0
 20
0.0
 30
0.0
  9
$EXTMAX
 10
1000.0
 20
1000.0
 30
0.0
  9
$FILLMODE
 70
 0
  9
$SPLFRAME
 70
 1
  0
ENDSEC
  0
SECTION
  2
TABLES
  0
TABLE
  2
LAYER
 70
1
  0
LAYER
  2
0
 70
     0
 62
     7
  6
CONTINUOUS
  0
ENDTAB
  0
ENDSEC
  0
SECTION
  2
ENTITIES
  0
POLYLINE
  8
0
 62
     0
 66
     1
 10
0
 20
0
 30
0.0
 70
     1
 40
0
 41
0
  0
VERTEX
  8
0
 10
9.22711
 20
8.98112
 30
0.0
 40
0
 41
0
  0
VERTEX
  8
0
 10
9.21283
 20
8.97379
 30
0.0
 40
0
 41
0
  0
VERTEX
  8
0
 10
9.17443
 20
8.94347
 30
0.0
 40
0
 41
0
  0
VERTEX
  8
0
 10
9.11431
 20
8.8839
 30
0.0
 40
0
 41
0
  0
VERTEX
  8
0
 10
9.05126
 20
8.80897
 30
0.0
 40
0
 41
0
  0
VERTEX
  8
0
 10
8.98969
 20
8.72515
 30
0.0
 40
0
 41
0
  0
VERTEX
  8
0
 10
8.93408
 20
8.639
 30
0.0
 40
0
 41
0
  0
VERTEX
  8
0
 10
8.88878
 20
8.55707
 30
0.0
 40
0
 41
0
  0
VERTEX
  8
0
 10
8.8584
 20
8.48579
 30
0.0
 40
0
 41
0
  0
VERTEX
  8
0
 10
8.84728
 20
8.44526
 30
0.0
 40
0
 41
0
  0
VERTEX
  8
0
 10
8.84728
 20
8.43175
 30
0.0
 40
0
 41
0
  0
VERTEX
  8
0
 10
8.84728
 20
8.42383
 30
0.0
 40
0
 41
0
  0
VERTEX
  8
0
 10
8.83399
 20
8.3999
 30
0.0
 40
0
 41
0
  0
VERTEX
  8
0
 10
8.80826
 20
8.37646
 30
0.0
 40
0
 41
0
  0
VERTEX
  8
0
 10
8.80208
 20
8.37304
 30
0.0
 40
0
 41
0
  0
VERTEX
  8
0
 10
8.79531
 20
8.36951
 30
0.0
 40
0
 41
0
  0
VERTEX
  8
0
 10
8.77333
 20
8.36199
 30
0.0
 40
0
 41
0
  0
VERTEX
  8
0
 10
8.75738
 20
8.36768
 30
0.0
 40
0
 41
0
  0
VERTEX
  8
0
 10
8.75244
 20
8.39242
 30
0.0
 40
0
 41
0
  0
VERTEX
  8
0
 10
8.75515
 20
8.42714
 30
0.0
 40
0
 41
0
  0
VERTEX
  8
0
 10
8.75689
 20
8.43853
 30
0.0
 40
0
 41
0
  0
VERTEX
  8
0
 10
8.75743
 20
8.44308
 30
0.0
 40
0
 41
0
  0
VERTEX
  8
0
 10
8.75037
 20
8.45779
 30
0.0
 40
0
 41
0
  0
VERTEX
  8
0
 10
8.73074
 20
8.45888
 30
0.0
 40
0
 41
0
  0
VERTEX
  8
0
 10
8.72521
 20
8.45665
 30
0.0
 40
0
 41
0
  0
VERTEX
  8
0
 10
8.72065
 20
8.45497
 30
0.0
 40
0
 41
0
  0
VERTEX
  8
0
 10
8.69949
 20
8.45497
 30
0.0
 40
0
 41
0
  0
VERTEX
  8
0
 10
8.68397
 20
8.46625
 30
0.0
 40
0
 41
0
  0
VERTEX
  8
0
 10
8.68229
 20
8.47021
 30
0.0
 40
0
 41
0
  0
VERTEX
  8
0
 10
8.68192
 20
8.47136
 30
0.0
 40
0
 41
0
  0
VERTEX
  8
0
 10
8.67453
 20
8.47271
 30
0.0
 40
0
 41
0
  0
VERTEX
  8
0
 10
8.6594
 20
8.46143
 30
0.0
 40
0
 41
0
  0
VERTEX
  8
0
 10
8.63872
 20
8.43875
 30
0.0
 40
0
 41
0
  0
VERTEX
  8
0
 10
8.62028
 20
8.41504
 30
0.0
 40
0
 41
0
  0
VERTEX
  8
0
 10
8.61447
 20
8.4069
 30
0.0
 40
0
 41
0
  0
VERTEX
  8
0
 10
8.60889
 20
8.39876
 30
0.0
 40
0
 41
0
  0
VERTEX
  8
0
 10
8.59158
 20
8.37457
 30
0.0
 40
0
 41
0
  0
VERTEX
  8
0
 10
8.574
 20
8.35211
 30
0.0
 40
0
 41
0
  0
VERTEX
  8
0
 10
8.5619
 20
8.33946
 30
0.0
 40
0
 41
0
  0
VERTEX
  8
0
 10
8.55539
 20
8.33653
 30
0.0
 40
0
 41
0
  0
VERTEX
  8
0
 10
8.55474
 20
8.34326
 30
0.0
 40
0
 41
0
  0
VERTEX
  8
0
 10
8.56011
 20
8.35954
 30
0.0
 40
0
 41
0
  0
VERTEX
  8
0
 10
8.57161
 20
8.38525
 30
0.0
 40
0
 41
0
  0
VERTEX
  8
0
 10
8.5849
 20
8.41174
 30
0.0
 40
0
 41
0
  0
VERTEX
  8
0
 10
8.58957
 20
8.42042
 30
0.0
 40
0
 41
0
  0
VERTEX
  8
0
 10
8.59283
 20
8.42736
 30
0.0
 40
0
 41
0
  0
VERTEX
  8
0
 10
8.60206
 20
8.4484
 30
0.0
 40
0
 41
0
  0
VERTEX
  8
0
 10
8.61133
 20
8.47271
 30
0.0
 40
0
 41
0
  0
VERTEX
  8
0
 10
8.61594
 20
8.49072
 30
0.0
 40
0
 41
0
  0
VERTEX
  8
0
 10
8.61572
 20
8.49875
 30
0.0
 40
0
 41
0
  0
VERTEX
  8
0
 10
8.61447
 20
8.49957
 30
0.0
 40
0
 41
0
  0
VERTEX
  8
0
 10
8.61356
 20
8.50049
 30
0.0
 40
0
 41
0
  0
VERTEX
  8
0
 10
8.60042
 20
8.493
 30
0.0
 40
0
 41
0
  0
VERTEX
  8
0
 10
8.56814
 20
8.46881
 30
0.0
 40
0
 41
0
  0
VERTEX
  8
0
 10
8.52225
 20
8.43061
 30
0.0
 40
0
 41
0
  0
VERTEX
  8
0
 10
8.48101
 20
8.39438
 30
0.0
 40
0
 41
0
  0
VERTEX
  8
0
 10
8.4675
 20
8.382
 30
0.0
 40
0
 41
0
  0
VERTEX
  8
0
 10
8.45426
 20
8.36996
 30
0.0
 40
0
 41
0
  0
VERTEX
  8
0
 10
8.41314
 20
8.33539
 30
0.0
 40
0
 41
0
  0
VERTEX
  8
0
 10
8.36854
 20
8.30236
 30
0.0
 40
0
 41
0
  0
VERTEX
  8
0
 10
8.33837
 20
8.28543
 30
0.0
 40
0
 41
0
  0
VERTEX
  8
0
 10
8.32731
 20
8.28674
 30
0.0
 40
0
 41
0
  0
VERTEX
  8
0
 10
8.32731
 20
8.28711
 30
0.0
 40
0
 41
0
  0
VERTEX
  8
0
 10
8.32731
 20
8.29454
 30
0.0
 40
0
 41
0
  0
VERTEX
  8
0
 10
8.33431
 20
8.31679
 30
0.0
 40
0
 41
0
  0
VERTEX
  8
0
 10
8.347
 20
8.33854
 30
0.0
 40
0
 41
0
  0
VERTEX
  8
0
 10
8.34987
 20
8.34136
 30
0.0
 40
0
 41
0
  0
VERTEX
  8
0
 10
8.35325
 20
8.34478
 30
0.0
 40
0
 41
0
  0
VERTEX
  8
0
 10
8.36285
 20
8.36962
 30
0.0
 40
0
 41
0
  0
VERTEX
  8
0
 10
8.36117
 20
8.39903
 30
0.0
 40
0
 41
0
  0
VERTEX
  8
0
 10
8.35894
 20
8.40468
 30
0.0
 40
0
 41
0
  0
VERTEX
  8
0
 10
8.35699
 20
8.40989
 30
0.0
 40
0
 41
0
  0
VERTEX
  8
0
 10
8.34972
 20
8.42497
 30
0.0
 40
0
 41
0
  0
VERTEX
  8
0
 10
8.33942
 20
8.43153
 30
0.0
 40
0
 41
0
  0
VERTEX
  8
0
 10
8.32363
 20
8.42404
 30
0.0
 40
0
 41
0
  0
VERTEX
  8
0
 10
8.30414
 20
8.40804
 30
0.0
 40
0
 41
0
  0
VERTEX
  8
0
 10
8.2979
 20
8.4024
 30
0.0
 40
0
 41
0
  0
VERTEX
  8
0
 10
8.29394
 20
8.39887
 30
0.0
 40
0
 41
0
  0
VERTEX
  8
0
 10
8.28153
 20
8.38889
 30
0.0
 40
0
 41
0
  0
VERTEX
  8
0
 10
8.27046
 20
8.38238
 30
0.0
 40
0
 41
0
  0
VERTEX
  8
0
 10
8.26579
 20
8.38308
 30
0.0
 40
0
 41
0
  0
VERTEX
  8
0
 10
8.26753
 20
8.38937
 30
0.0
 40
0
 41
0
  0
VERTEX
  8
0
 10
8.26856
 20
8.39117
 30
0.0
 40
0
 41
0
  0
VERTEX
  8
0
 10
8.27132
 20
8.39578
 30
0.0
 40
0
 41
0
  0
VERTEX
  8
0
 10
8.27886
 20
8.4101
 30
0.0
 40
0
 41
0
  0
VERTEX
  8
0
 10
8.28168
 20
8.41976
 30
0.0
 40
0
 41
0
  0
VERTEX
  8
0
 10
8.27789
 20
8.4209
 30
0.0
 40
0
 41
0
  0
VERTEX
  8
0
 10
8.2685
 20
8.41433
 30
0.0
 40
0
 41
0
  0
VERTEX
  8
0
 10
8.2545
 20
8.40082
 30
0.0
 40
0
 41
0
  0
VERTEX
  8
0
 10
8.23676
 20
8.38103
 30
0.0
 40
0
 41
0
  0
VERTEX
  8
0
 10
8.21625
 20
8.35568
 30
0.0
 40
0
 41
0
  0
VERTEX
  8
0
 10
8.19933
 20
8.33328
 30
0.0
 40
0
 41
0
  0
VERTEX
  8
0
 10
8.19396
 20
8.32563
 30
0.0
 40
0
 41
0
  0
VERTEX
  8
0
 10
8.12614
 20
8.23519
 30
0.0
 40
0
 41
0
  0
VERTEX
  8
0
 10
8.11936
 20
8.33242
 30
0.0
 40
0
 41
0
  0
VERTEX
  8
0
 10
8.11263
 20
8.42958
 30
0.0
 40
0
 41
0
  0
VERTEX
  8
0
 10
8.05832
 20
8.32781
 30
0.0
 40
0
 41
0
  0
VERTEX
  8
0
 10
8.05078
 20
8.31381
 30
0.0
 40
0
 41
0
  0
VERTEX
  8
0
 10
8.02735
 20
8.27214
 30
0.0
 40
0
 41
0
  0
VERTEX
  8
0
 10
8.00885
 20
8.24843
 30
0.0
 40
0
 41
0
  0
VERTEX
  8
0
 10
7.99756
 20
8.25315
 30
0.0
 40
0
 41
0
  0
VERTEX
  8
0
 10
7.99007
 20
8.27518
 30
0.0
 40
0
 41
0
  0
VERTEX
  8
0
 10
7.98822
 20
8.28261
 30
0.0
 40
0
 41
0
  0
VERTEX
  8
0
 10
7.97467
 20
8.33919
 30
0.0
 40
0
 41
0
  0
VERTEX
  8
0
 10
7.91363
 20
8.27365
 30
0.0
 40
0
 41
0
  0
VERTEX
  8
0
 10
7.90571
 20
8.26508
 30
0.0
 40
0
 41
0
  0
VERTEX
  8
0
 10
7.88118
 20
8.24001
 30
0.0
 40
0
 41
0
  0
VERTEX
  8
0
 10
7.86274
 20
8.22624
 30
0.0
 40
0
 41
0
  0
VERTEX
  8
0
 10
7.85449
 20
8.23107
 30
0.0
 40
0
 41
0
  0
VERTEX
  8
0
 10
7.8526
 20
8.24778
 30
0.0
 40
0
 41
0
  0
VERTEX
  8
0
 10
7.8526
 20
8.25331
 30
0.0
 40
0
 41
0
  0
VERTEX
  8
0
 10
7.8526
 20
8.26351
 30
0.0
 40
0
 41
0
  0
VERTEX
  8
0
 10
7.86274
 20
8.29406
 30
0.0
 40
0
 41
0
  0
VERTEX
  8
0
 10
7.882
 20
8.32394
 30
0.0
 40
0
 41
0
  0
VERTEX
  8
0
 10
7.88656
 20
8.3279
 30
0.0
 40
0
 41
0
  0
VERTEX
  8
0
 10
7.89106
 20
8.33188
 30
0.0
 40
0
 41
0
  0
VERTEX
  8
0
 10
7.91026
 20
8.35454
 30
0.0
 40
0
 41
0
  0
VERTEX
  8
0
 10
7.92042
 20
8.37196
 30
0.0
 40
0
 41
0
  0
VERTEX
  8
0
 10
7.92042
 20
8.37771
 30
0.0
 40
0
 41
0
  0
VERTEX
  8
0
 10
7.92042
 20
8.38086
 30
0.0
 40
0
 41
0
  0
VERTEX
  8
0
 10
7.9126
 20
8.39014
 30
0.0
 40
0
 41
0
  0
VERTEX
  8
0
 10
7.89188
 20
8.37864
 30
0.0
 40
0
 41
0
  0
VERTEX
  8
0
 10
7.86219
 20
8.34631
 30
0.0
 40
0
 41
0
  0
VERTEX
  8
0
 10
7.83561
 20
8.30925
 30
0.0
 40
0
 41
0
  0
VERTEX
  8
0
 10
7.82769
 20
8.29633
 30
0.0
 40
0
 41
0
  0
VERTEX
  8
0
 10
7.82264
 20
8.28803
 30
0.0
 40
0
 41
0
  0
VERTEX
  8
0
 10
7.80664
 20
8.26357
 30
0.0
 40
0
 41
0
  0
VERTEX
  8
0
 10
7.7934
 20
8.24918
 30
0.0
 40
0
 41
0
  0
VERTEX
  8
0
 10
7.78657
 20
8.25217
 30
0.0
 40
0
 41
0
  0
VERTEX
  8
0
 10
7.78467
 20
8.26665
 30
0.0
 40
0
 41
0
  0
VERTEX
  8
0
 10
7.78467
 20
8.27149
 30
0.0
 40
0
 41
0
  0
VERTEX
  8
0
 10
7.78467
 20
8.27669
 30
0.0
 40
0
 41
0
  0
VERTEX
  8
0
 10
7.78293
 20
8.29215
 30
0.0
 40
0
 41
0
  0
VERTEX
  8
0
 10
7.77621
 20
8.29579
 30
0.0
 40
0
 41
0
  0
VERTEX
  8
0
 10
7.76178
 20
8.28168
 30
0.0
 40
0
 41
0
  0
VERTEX
  8
0
 10
7.74317
 20
8.25722
 30
0.0
 40
0
 41
0
  0
VERTEX
  8
0
 10
7.73719
 20
8.24886
 30
0.0
 40
0
 41
0
  0
VERTEX
  8
0
 10
7.68967
 20
8.18104
 30
0.0
 40
0
 41
0
  0
VERTEX
  8
0
 10
7.70324
 20
8.25792
 30
0.0
 40
0
 41
0
  0
VERTEX
  8
0
 10
7.70514
 20
8.26888
 30
0.0
 40
0
 41
0
  0
VERTEX
  8
0
 10
7.71035
 20
8.30176
 30
0.0
 40
0
 41
0
  0
VERTEX
  8
0
 10
7.70942
 20
8.3201
 30
0.0
 40
0
 41
0
  0
VERTEX
  8
0
 10
7.69749
 20
8.31646
 30
0.0
 40
0
 41
0
  0
VERTEX
  8
0
 10
7.6779
 20
8.29981
 30
0.0
 40
0
 41
0
  0
VERTEX
  8
0
 10
7.67156
 20
8.29406
 30
0.0
 40
0
 41
0
  0
VERTEX
  8
0
 10
7.66629
 20
8.28933
 30
0.0
 40
0
 41
0
  0
VERTEX
  8
0
 10
7.6531
 20
8.27225
 30
0.0
 40
0
 41
0
  0
VERTEX
  8
0
 10
7.63624
 20
8.24322
 30
0.0
 40
0
 41
0
  0
VERTEX
  8
0
 10
7.62229
 20
8.21078
 30
0.0
 40
0
 41
0
  0
VERTEX
  8
0
 10
7.61458
 20
8.1869
 30
0.0
 40
0
 41
0
  0
VERTEX
  8
0
 10
7.61279
 20
8.17876
 30
0.0
 40
0
 41
0
  0
VERTEX
  8
0
 10
7.6116
 20
8.17117
 30
0.0
 40
0
 41
0
  0
VERTEX
  8
0
 10
7.60628
 20
8.14865
 30
0.0
 40
0
 41
0
  0
VERTEX
  8
0
 10
7.59782
 20
8.12424
 30
0.0
 40
0
 41
0
  0
VERTEX
  8
0
 10
7.58897
 20
8.10792
 30
0.0
 40
0
 41
0
  0
VERTEX
  8
0
 10
7.58311
 20
8.10189
 30
0.0
 40
0
 41
0
  0
VERTEX
  8
0
 10
7.58117
 20
8.10189
 30
0.0
 40
0
 41
0
  0
VERTEX
  8
0
 10
7.5765
 20
8.10189
 30
0.0
 40
0
 41
0
  0
VERTEX
  8
0
 10
7.56256
 20
8.11296
 30
0.0
 40
0
 41
0
  0
VERTEX
  8
0
 10
7.54949
 20
8.13921
 30
0.0
 40
0
 41
0
  0
VERTEX
  8
0
 10
7.54486
 20
8.17062
 30
0.0
 40
0
 41
0
  0
VERTEX
  8
0
 10
7.54818
 20
8.19157
 30
0.0
 40
0
 41
0
  0
VERTEX
  8
0
 10
7.55176
 20
8.19689
 30
0.0
 40
0
 41
0
  0
VERTEX
  8
0
 10
7.55306
 20
8.20003
 30
0.0
 40
0
 41
0
  0
VERTEX
  8
0
 10
7.55371
 20
8.21078
 30
0.0
 40
0
 41
0
  0
VERTEX
  8
0
 10
7.54335
 20
8.20785
 30
0.0
 40
0
 41
0
  0
VERTEX
  8
0
 10
7.54053
 20
8.20594
 30
0.0
 40
0
 41
0
  0
VERTEX
  8
0
 10
7.53657
 20
8.20372
 30
0.0
 40
0
 41
0
  0
VERTEX
  8
0
 10
7.52106
 20
8.18446
 30
0.0
 40
0
 41
0
  0
VERTEX
  8
0
 10
7.51346
 20
8.16331
 30
0.0
 40
0
 41
0
  0
VERTEX
  8
0
 10
7.51346
 20
8.15625
 30
0.0
 40
0
 41
0
  0
VERTEX
  8
0
 10
7.51346
 20
8.1511
 30
0.0
 40
0
 41
0
  0
VERTEX
  8
0
 10
7.50749
 20
8.13564
 30
0.0
 40
0
 41
0
  0
VERTEX
  8
0
 10
7.4955
 20
8.13222
 30
0.0
 40
0
 41
0
  0
VERTEX
  8
0
 10
7.49311
 20
8.13362
 30
0.0
 40
0
 41
0
  0
VERTEX
  8
0
 10
7.4916
 20
8.13456
 30
0.0
 40
0
 41
0
  0
VERTEX
  8
0
 10
7.48318
 20
8.13069
 30
0.0
 40
0
 41
0
  0
VERTEX
  8
0
 10
7.47136
 20
8.11333
 30
0.0
 40
0
 41
0
  0
VERTEX
  8
0
 10
7.4591
 20
8.0841
 30
0.0
 40
0
 41
0
  0
VERTEX
  8
0
 10
7.45025
 20
8.05528
 30
0.0
 40
0
 41
0
  0
VERTEX
  8
0
 10
7.44792
 20
8.04551
 30
0.0
 40
0
 41
0
  0
VERTEX
  8
0
 10
7.44542
 20
8.0356
 30
0.0
 40
0
 41
0
  0
VERTEX
  8
0
 10
7.43625
 20
8.00618
 30
0.0
 40
0
 41
0
  0
VERTEX
  8
0
 10
7.42393
 20
7.97646
 30
0.0
 40
0
 41
0
  0
VERTEX
  8
0
 10
7.41163
 20
7.95665
 30
0.0
 40
0
 41
0
  0
VERTEX
  8
0
 10
7.40018
 20
7.94721
 30
0.0
 40
0
 41
0
  0
VERTEX
  8
0
 10
7.39025
 20
7.94829
 30
0.0
 40
0
 41
0
  0
VERTEX
  8
0
 10
7.38271
 20
7.96035
 30
0.0
 40
0
 41
0
  0
VERTEX
  8
0
 10
7.37831
 20
7.98367
 30
0.0
 40
0
 41
0
  0
VERTEX
  8
0
 10
7.37744
 20
8.00982
 30
0.0
 40
0
 41
0
  0
VERTEX
  8
0
 10
7.37782
 20
8.01844
 30
0.0
 40
0
 41
0
  0
VERTEX
  8
0
 10
7.37836
 20
8.0286
 30
0.0
 40
0
 41
0
  0
VERTEX
  8
0
 10
7.37967
 20
8.05908
 30
0.0
 40
0
 41
0
  0
VERTEX
  8
0
 10
7.37939
 20
8.08735
 30
0.0
 40
0
 41
0
  0
VERTEX
  8
0
 10
7.37614
 20
8.10281
 30
0.0
 40
0
 41
0
  0
VERTEX
  8
0
 10
7.36876
 20
8.10493
 30
0.0
 40
0
 41
0
  0
VERTEX
  8
0
 10
7.35628
 20
8.09332
 30
0.0
 40
0
 41
0
  0
VERTEX
  8
0
 10
7.33772
 20
8.06739
 30
0.0
 40
0
 41
0
  0
VERTEX
  8
0
 10
7.31207
 20
8.02681
 30
0.0
 40
0
 41
0
  0
VERTEX
  8
0
 10
7.28668
 20
7.98492
 30
0.0
 40
0
 41
0
  0
VERTEX
  8
0
 10
7.27832
 20
7.97092
 30
0.0
 40
0
 41
0
  0
VERTEX
  8
0
 10
7.27029
 20
7.95751
 30
0.0
 40
0
 41
0
  0
VERTEX
  8
0
 10
7.24621
 20
7.91726
 30
0.0
 40
0
 41
0
  0
VERTEX
  8
0
 10
7.2219
 20
7.87756
 30
0.0
 40
0
 41
0
  0
VERTEX
  8
0
 10
7.20415
 20
7.85075
 30
0.0
 40
0
 41
0
  0
VERTEX
  8
0
 10
7.19157
 20
7.83589
 30
0.0
 40
0
 41
0
  0
VERTEX
  8
0
 10
7.18294
 20
7.83182
 30
0.0
 40
0
 41
0
  0
VERTEX
  8
0
 10
7.17692
 20
7.83746
 30
0.0
 40
0
 41
0
  0
VERTEX
  8
0
 10
7.17225
 20
7.85178
 30
0.0
 40
0
 41
0
  0
VERTEX
  8
0
 10
7.16868
 20
7.86828
 30
0.0
 40
0
 41
0
  0
VERTEX
  8
0
 10
7.16758
 20
7.87375
 30
0.0
 40
0
 41
0
  0
VERTEX
  8
0
 10
7.16575
 20
7.88157
 30
0.0
 40
0
 41
0
  0
VERTEX
  8
0
 10
7.16325
 20
7.90571
 30
0.0
 40
0
 41
0
  0
VERTEX
  8
0
 10
7.16363
 20
7.94103
 30
0.0
 40
0
 41
0
  0
VERTEX
  8
0
 10
7.16824
 20
7.97547
 30
0.0
 40
0
 41
0
  0
VERTEX
  8
0
 10
7.17383
 20
7.99783
 30
0.0
 40
0
 41
0
  0
VERTEX
  8
0
 10
7.17665
 20
8.00489
 30
0.0
 40
0
 41
0
  0
VERTEX
  8
0
 10
7.19928
 20
8.06592
 30
0.0
 40
0
 41
0
  0
VERTEX
  8
0
 10
7.14958
 20
8.023
 30
0.0
 40
0
 41
0
  0
VERTEX
  8
0
 10
7.14253
 20
8.01665
 30
0.0
 40
0
 41
0
  0
VERTEX
  8
0
 10
7.12121
 20
7.99767
 30
0.0
 40
0
 41
0
  0
VERTEX
  8
0
 10
7.10938
 20
7.98969
 30
0.0
 40
0
 41
0
  0
VERTEX
  8
0
 10
7.11199
 20
7.99951
 30
0.0
 40
0
 41
0
  0
VERTEX
  8
0
 10
7.12315
 20
8.02056
 30
0.0
 40
0
 41
0
  0
VERTEX
  8
0
 10
7.12696
 20
8.0275
 30
0.0
 40
0
 41
0
  0
VERTEX
  8
0
 10
7.13032
 20
8.03429
 30
0.0
 40
0
 41
0
  0
VERTEX
  8
0
 10
7.14447
 20
8.06679
 30
0.0
 40
0
 41
0
  0
VERTEX
  8
0
 10
7.15186
 20
8.08485
 30
0.0
 40
0
 41
0
  0
VERTEX
  8
0
 10
7.15186
 20
8.09082
 30
0.0
 40
0
 41
0
  0
VERTEX
  8
0
 10
7.15186
 20
8.09082
 30
0.0
 40
0
 41
0
  0
VERTEX
  8
0
 10
7.14611
 20
8.09
 30
0.0
 40
0
 41
0
  0
VERTEX
  8
0
 10
7.13064
 20
8.0759
 30
0.0
 40
0
 41
0
  0
VERTEX
  8
0
 10
7.10807
 20
8.0516
 30
0.0
 40
0
 41
0
  0
VERTEX
  8
0
 10
7.08089
 20
8.02018
 30
0.0
 40
0
 41
0
  0
VERTEX
  8
0
 10
7.05171
 20
7.98481
 30
0.0
 40
0
 41
0
  0
VERTEX
  8
0
 10
7.02306
 20
7.9484
 30
0.0
 40
0
 41
0
  0
VERTEX
  8
0
 10
6.99756
 20
7.91417
 30
0.0
 40
0
 41
0
  0
VERTEX
  8
0
 10
6.98247
 20
7.89253
 30
0.0
 40
0
 41
0
  0
VERTEX
  8
0
 10
6.97781
 20
7.8851
 30
0.0
 40
0
 41
0
  0
VERTEX
  8
0
 10
6.97424
 20
7.87929
 30
0.0
 40
0
 41
0
  0
VERTEX
  8
0
 10
6.96306
 20
7.86219
 30
0.0
 40
0
 41
0
  0
VERTEX
  8
0
 10
6.95486
 20
7.85433
 30
0.0
 40
0
 41
0
  0
VERTEX
  8
0
 10
6.95133
 20
7.86128
 30
0.0
 40
0
 41
0
  0
VERTEX
  8
0
 10
6.95063
 20
7.87744
 30
0.0
 40
0
 41
0
  0
VERTEX
  8
0
 10
6.95063
 20
7.88282
 30
0.0
 40
0
 41
0
  0
VERTEX
  8
0
 10
6.95003
 20
7.88851
 30
0.0
 40
0
 41
0
  0
VERTEX
  8
0
 10
6.956
 20
7.92524
 30
0.0
 40
0
 41
0
  0
VERTEX
  8
0
 10
6.96983
 20
7.96419
 30
0.0
 40
0
 41
0
  0
VERTEX
  8
0
 10
6.97325
 20
7.97092
 30
0.0
 40
0
 41
0
  0
VERTEX
  8
0
 10
6.97646
 20
7.97706
 30
0.0
 40
0
 41
0
  0
VERTEX
  8
0
 10
6.98492
 20
7.99599
 30
0.0
 40
0
 41
0
  0
VERTEX
  8
0
 10
6.99001
 20
8.01346
 30
0.0
 40
0
 41
0
  0
VERTEX
  8
0
 10
6.98931
 20
8.02344
 30
0.0
 40
0
 41
0
  0
VERTEX
  8
0
 10
6.98367
 20
8.02604
 30
0.0
 40
0
 41
0
  0
VERTEX
  8
0
 10
6.9739
 20
8.02138
 30
0.0
 40
0
 41
0
  0
VERTEX
  8
0
 10
6.96083
 20
8.00944
 30
0.0
 40
0
 41
0
  0
VERTEX
  8
0
 10
6.94526
 20
7.99035
 30
0.0
 40
0
 41
0
  0
VERTEX
  8
0
 10
6.93201
 20
7.97092
 30
0.0
 40
0
 41
0
  0
VERTEX
  8
0
 10
6.928
 20
7.96419
 30
0.0
 40
0
 41
0
  0
VERTEX
  8
0
 10
6.9235
 20
7.95714
 30
0.0
 40
0
 41
0
  0
VERTEX
  8
0
 10
6.90913
 20
7.93642
 30
0.0
 40
0
 41
0
  0
VERTEX
  8
0
 10
6.8941
 20
7.9184
 30
0.0
 40
0
 41
0
  0
VERTEX
  8
0
 10
6.88411
 20
7.9114
 30
0.0
 40
0
 41
0
  0
VERTEX
  8
0
 10
6.88053
 20
7.91536
 30
0.0
 40
0
 41
0
  0
VERTEX
  8
0
 10
6.88053
 20
7.91667
 30
0.0
 40
0
 41
0
  0
VERTEX
  8
0
 10
6.88053
 20
7.92344
 30
0.0
 40
0
 41
0
  0
VERTEX
  8
0
 10
6.87218
 20
7.94368
 30
0.0
 40
0
 41
0
  0
VERTEX
  8
0
 10
6.85107
 20
7.93929
 30
0.0
 40
0
 41
0
  0
VERTEX
  8
0
 10
6.82324
 20
7.90776
 30
0.0
 40
0
 41
0
  0
VERTEX
  8
0
 10
6.80051
 20
7.86746
 30
0.0
 40
0
 41
0
  0
VERTEX
  8
0
 10
6.7946
 20
7.85335
 30
0.0
 40
0
 41
0
  0
VERTEX
  8
0
 10
6.79096
 20
7.84451
 30
0.0
 40
0
 41
0
  0
VERTEX
  8
0
 10
6.77919
 20
7.81831
 30
0.0
 40
0
 41
0
  0
VERTEX
  8
0
 10
6.76465
 20
7.7895
 30
0.0
 40
0
 41
0
  0
VERTEX
  8
0
 10
6.75265
 20
7.77007
 30
0.0
 40
0
 41
0
  0
VERTEX
  8
0
 10
6.74681
 20
7.76292
 30
0.0
 40
0
 41
0
  0
VERTEX
  8
0
 10
6.7449
 20
7.76292
 30
0.0
 40
0
 41
0
  0
VERTEX
  8
0
 10
6.74294
 20
7.76292
 30
0.0
 40
0
 41
0
  0
VERTEX
  8
0
 10
6.73708
 20
7.76844
 30
0.0
 40
0
 41
0
  0
VERTEX
  8
0
 10
6.7251
 20
7.78331
 30
0.0
 40
0
 41
0
  0
VERTEX
  8
0
 10
6.7105
 20
7.8049
 30
0.0
 40
0
 41
0
  0
VERTEX
  8
0
 10
6.69879
 20
7.82422
 30
0.0
 40
0
 41
0
  0
VERTEX
  8
0
 10
6.6951
 20
7.83074
 30
0.0
 40
0
 41
0
  0
VERTEX
  8
0
 10
6.68858
 20
7.84233
 30
0.0
 40
0
 41
0
  0
VERTEX
  8
0
 10
6.66444
 20
7.87451
 30
0.0
 40
0
 41
0
  0
VERTEX
  8
0
 10
6.63683
 20
7.89606
 30
0.0
 40
0
 41
0
  0
VERTEX
  8
0
 10
6.61681
 20
7.89339
 30
0.0
 40
0
 41
0
  0
VERTEX
  8
0
 10
6.60915
 20
7.8719
 30
0.0
 40
0
 41
0
  0
VERTEX
  8
0
 10
6.60915
 20
7.86469
 30
0.0
 40
0
 41
0
  0
VERTEX
  8
0
 10
6.60915
 20
7.85878
 30
0.0
 40
0
 41
0
  0
VERTEX
  8
0
 10
6.60319
 20
7.84093
 30
0.0
 40
0
 41
0
  0
VERTEX
  8
0
 10
6.59244
 20
7.83074
 30
0.0
 40
0
 41
0
  0
VERTEX
  8
0
 10
6.58886
 20
7.83074
 30
0.0
 40
0
 41
0
  0
VERTEX
  8
0
 10
6.58643
 20
7.83074
 30
0.0
 40
0
 41
0
  0
VERTEX
  8
0
 10
6.57915
 20
7.82406
 30
0.0
 40
0
 41
0
  0
VERTEX
  8
0
 10
6.57075
 20
7.80588
 30
0.0
 40
0
 41
0
  0
VERTEX
  8
0
 10
6.56401
 20
7.77924
 30
0.0
 40
0
 41
0
  0
VERTEX
  8
0
 10
6.56022
 20
7.75515
 30
0.0
 40
0
 41
0
  0
VERTEX
  8
0
 10
6.55946
 20
7.74707
 30
0.0
 40
0
 41
0
  0
VERTEX
  8
0
 10
6.55886
 20
7.73942
 30
0.0
 40
0
 41
0
  0
VERTEX
  8
0
 10
6.55512
 20
7.71642
 30
0.0
 40
0
 41
0
  0
VERTEX
  8
0
 10
6.5479
 20
7.69086
 30
0.0
 40
0
 41
0
  0
VERTEX
  8
0
 10
6.53857
 20
7.67128
 30
0.0
 40
0
 41
0
  0
VERTEX
  8
0
 10
6.5281
 20
7.65836
 30
0.0
 40
0
 41
0
  0
VERTEX
  8
0
 10
6.51725
 20
7.65289
 30
0.0
 40
0
 41
0
  0
VERTEX
  8
0
 10
6.507
 20
7.65554
 30
0.0
 40
0
 41
0
  0
VERTEX
  8
0
 10
6.49815
 20
7.6671
 30
0.0
 40
0
 41
0
  0
VERTEX
  8
0
 10
6.49268
 20
7.68294
 30
0.0
 40
0
 41
0
  0
VERTEX
  8
0
 10
6.49164
 20
7.68832
 30
0.0
 40
0
 41
0
  0
VERTEX
  8
0
 10
6.49072
 20
7.69288
 30
0.0
 40
0
 41
0
  0
VERTEX
  8
0
 10
6.48583
 20
7.70606
 30
0.0
 40
0
 41
0
  0
VERTEX
  8
0
 10
6.47754
 20
7.70785
 30
0.0
 40
0
 41
0
  0
VERTEX
  8
0
 10
6.46496
 20
7.69314
 30
0.0
 40
0
 41
0
  0
VERTEX
  8
0
 10
6.45085
 20
7.66938
 30
0.0
 40
0
 41
0
  0
VERTEX
  8
0
 10
6.44646
 20
7.66124
 30
0.0
 40
0
 41
0
  0
VERTEX
  8
0
 10
6.44228
 20
7.65365
 30
0.0
 40
0
 41
0
  0
VERTEX
  8
0
 10
6.42854
 20
7.63151
 30
0.0
 40
0
 41
0
  0
VERTEX
  8
0
 10
6.41504
 20
7.61638
 30
0.0
 40
0
 41
0
  0
VERTEX
  8
0
 10
6.40539
 20
7.61518
 30
0.0
 40
0
 41
0
  0
VERTEX
  8
0
 10
6.39985
 20
7.62408
 30
0.0
 40
0
 41
0
  0
VERTEX
  8
0
 10
6.39899
 20
7.62728
 30
0.0
 40
0
 41
0
  0
VERTEX
  8
0
 10
6.39725
 20
7.63183
 30
0.0
 40
0
 41
0
  0
VERTEX
  8
0
 10
6.38678
 20
7.66118
 30
0.0
 40
0
 41
0
  0
VERTEX
  8
0
 10
6.37744
 20
7.6906
 30
0.0
 40
0
 41
0
  0
VERTEX
  8
0
 10
6.37636
 20
7.6951
 30
0.0
 40
0
 41
0
  0
VERTEX
  8
0
 10
6.37554
 20
7.69715
 30
0.0
 40
0
 41
0
  0
VERTEX
  8
0
 10
6.36703
 20
7.70107
 30
0.0
 40
0
 41
0
  0
VERTEX
  8
0
 10
6.36279
 20
7.67632
 30
0.0
 40
0
 41
0
  0
VERTEX
  8
0
 10
6.36279
 20
7.66803
 30
0.0
 40
0
 41
0
  0
VERTEX
  8
0
 10
6.36257
 20
7.66228
 30
0.0
 40
0
 41
0
  0
VERTEX
  8
0
 10
6.36008
 20
7.64501
 30
0.0
 40
0
 41
0
  0
VERTEX
  8
0
 10
6.35439
 20
7.62429
 30
0.0
 40
0
 41
0
  0
VERTEX
  8
0
 10
6.34674
 20
7.60699
 30
0.0
 40
0
 41
0
  0
VERTEX
  8
0
 10
6.33817
 20
7.59429
 30
0.0
 40
0
 41
0
  0
VERTEX
  8
0
 10
6.32969
 20
7.58746
 30
0.0
 40
0
 41
0
  0
VERTEX
  8
0
 10
6.32238
 20
7.58763
 30
0.0
 40
0
 41
0
  0
VERTEX
  8
0
 10
6.31722
 20
7.59603
 30
0.0
 40
0
 41
0
  0
VERTEX
  8
0
 10
6.31532
 20
7.60938
 30
0.0
 40
0
 41
0
  0
VERTEX
  8
0
 10
6.31532
 20
7.61376
 30
0.0
 40
0
 41
0
  0
VERTEX
  8
0
 10
6.31532
 20
7.62061
 30
0.0
 40
0
 41
0
  0
VERTEX
  8
0
 10
6.30881
 20
7.64106
 30
0.0
 40
0
 41
0
  0
VERTEX
  8
0
 10
6.29378
 20
7.64908
 30
0.0
 40
0
 41
0
  0
VERTEX
  8
0
 10
6.27707
 20
7.63883
 30
0.0
 40
0
 41
0
  0
VERTEX
  8
0
 10
6.26687
 20
7.6186
 30
0.0
 40
0
 41
0
  0
VERTEX
  8
0
 10
6.26551
 20
7.61143
 30
0.0
 40
0
 41
0
  0
VERTEX
  8
0
 10
6.2646
 20
7.60715
 30
0.0
 40
0
 41
0
  0
VERTEX
  8
0
 10
6.25965
 20
7.59472
 30
0.0
 40
0
 41
0
  0
VERTEX
  8
0
 10
6.25108
 20
7.59283
 30
0.0
 40
0
 41
0
  0
VERTEX
  8
0
 10
6.23785
 20
7.60704
 30
0.0
 40
0
 41
0
  0
VERTEX
  8
0
 10
6.22271
 20
7.63053
 30
0.0
 40
0
 41
0
  0
VERTEX
  8
0
 10
6.21804
 20
7.63857
 30
0.0
 40
0
 41
0
  0
VERTEX
  8
0
 10
6.18186
 20
7.70638
 30
0.0
 40
0
 41
0
  0
VERTEX
  8
0
 10
6.17958
 20
7.62272
 30
0.0
 40
0
 41
0
  0
VERTEX
  8
0
 10
6.17958
 20
7.60926
 30
0.0
 40
0
 41
0
  0
VERTEX
  8
0
 10
6.17458
 20
7.5689
 30
0.0
 40
0
 41
0
  0
VERTEX
  8
0
 10
6.16178
 20
7.54107
 30
0.0
 40
0
 41
0
  0
VERTEX
  8
0
 10
6.14426
 20
7.54172
 30
0.0
 40
0
 41
0
  0
VERTEX
  8
0
 10
6.12858
 20
7.56467
 30
0.0
 40
0
 41
0
  0
VERTEX
  8
0
 10
6.12532
 20
7.57303
 30
0.0
 40
0
 41
0
  0
VERTEX
  8
0
 10
6.12375
 20
7.57715
 30
0.0
 40
0
 41
0
  0
VERTEX
  8
0
 10
6.11594
 20
7.58837
 30
0.0
 40
0
 41
0
  0
VERTEX
  8
0
 10
6.104
 20
7.5944
 30
0.0
 40
0
 41
0
  0
VERTEX
  8
0
 10
6.0906
 20
7.59212
 30
0.0
 40
0
 41
0
  0
VERTEX
  8
0
 10
6.07699
 20
7.58262
 30
0.0
 40
0
 41
0
  0
VERTEX
  8
0
 10
6.06429
 20
7.56706
 30
0.0
 40
0
 41
0
  0
VERTEX
  8
0
 10
6.05376
 20
7.54633
 30
0.0
 40
0
 41
0
  0
VERTEX
  8
0
 10
6.0466
 20
7.5216
 30
0.0
 40
0
 41
0
  0
VERTEX
  8
0
 10
6.04394
 20
7.50082
 30
0.0
 40
0
 41
0
  0
VERTEX
  8
0
 10
6.04394
 20
7.49388
 30
0.0
 40
0
 41
0
  0
VERTEX
  8
0
 10
6.04362
 20
7.48611
 30
0.0
 40
0
 41
0
  0
VERTEX
  8
0
 10
6.04183
 20
7.46272
 30
0.0
 40
0
 41
0
  0
VERTEX
  8
0
 10
6.03743
 20
7.45003
 30
0.0
 40
0
 41
0
  0
VERTEX
  8
0
 10
6.02838
 20
7.45475
 30
0.0
 40
0
 41
0
  0
VERTEX
  8
0
 10
6.01611
 20
7.47038
 30
0.0
 40
0
 41
0
  0
VERTEX
  8
0
 10
6.01232
 20
7.47575
 30
0.0
 40
0
 41
0
  0
VERTEX
  8
0
 10
6.00814
 20
7.48122
 30
0.0
 40
0
 41
0
  0
VERTEX
  8
0
 10
5.99474
 20
7.49696
 30
0.0
 40
0
 41
0
  0
VERTEX
  8
0
 10
5.984
 20
7.50287
 30
0.0
 40
0
 41
0
  0
VERTEX
  8
0
 10
5.97667
 20
7.49354
 30
0.0
 40
0
 41
0
  0
VERTEX
  8
0
 10
5.97097
 20
7.47515
 30
0.0
 40
0
 41
0
  0
VERTEX
  8
0
 10
5.9694
 20
7.46897
 30
0.0
 40
0
 41
0
  0
VERTEX
  8
0
 10
5.96767
 20
7.46224
 30
0.0
 40
0
 41
0
  0
VERTEX
  8
0
 10
5.94819
 20
7.43625
 30
0.0
 40
0
 41
0
  0
VERTEX
  8
0
 10
5.91824
 20
7.42378
 30
0.0
 40
0
 41
0
  0
VERTEX
  8
0
 10
5.90831
 20
7.42378
 30
0.0
 40
0
 41
0
  0
VERTEX
  8
0
 10
5.9005
 20
7.42378
 30
0.0
 40
0
 41
0
  0
VERTEX
  8
0
 10
5.87722
 20
7.41726
 30
0.0
 40
0
 41
0
  0
VERTEX
  8
0
 10
5.87457
 20
7.40186
 30
0.0
 40
0
 41
0
  0
VERTEX
  8
0
 10
5.87668
 20
7.39887
 30
0.0
 40
0
 41
0
  0
VERTEX
  8
0
 10
5.87815
 20
7.39621
 30
0.0
 40
0
 41
0
  0
VERTEX
  8
0
 10
5.88037
 20
7.38693
 30
0.0
 40
0
 41
0
  0
VERTEX
  8
0
 10
5.87435
 20
7.38135
 30
0.0
 40
0
 41
0
  0
VERTEX
  8
0
 10
5.85818
 20
7.38172
 30
0.0
 40
0
 41
0
  0
VERTEX
  8
0
 10
5.838
 20
7.38585
 30
0.0
 40
0
 41
0
  0
VERTEX
  8
0
 10
5.83143
 20
7.38758
 30
0.0
 40
0
 41
0
  0
VERTEX
  8
0
 10
5.82443
 20
7.38932
 30
0.0
 40
0
 41
0
  0
VERTEX
  8
0
 10
5.80317
 20
7.39301
 30
0.0
 40
0
 41
0
  0
VERTEX
  8
0
 10
5.7851
 20
7.39188
 30
0.0
 40
0
 41
0
  0
VERTEX
  8
0
 10
5.7755
 20
7.38351
 30
0.0
 40
0
 41
0
  0
VERTEX
  8
0
 10
5.77274
 20
7.37136
 30
0.0
 40
0
 41
0
  0
VERTEX
  8
0
 10
5.77274
 20
7.36729
 30
0.0
 40
0
 41
0
  0
VERTEX
  8
0
 10
5.77274
 20
7.36317
 30
0.0
 40
0
 41
0
  0
VERTEX
  8
0
 10
5.77007
 20
7.35075
 30
0.0
 40
0
 41
0
  0
VERTEX
  8
0
 10
5.76199
 20
7.34158
 30
0.0
 40
0
 41
0
  0
VERTEX
  8
0
 10
5.74789
 20
7.33963
 30
0.0
 40
0
 41
0
  0
VERTEX
  8
0
 10
5.73236
 20
7.34293
 30
0.0
 40
0
 41
0
  0
VERTEX
  8
0
 10
5.72749
 20
7.34467
 30
0.0
 40
0
 41
0
  0
VERTEX
  8
0
 10
5.72228
 20
7.3464
 30
0.0
 40
0
 41
0
  0
VERTEX
  8
0
 10
5.70611
 20
7.34978
 30
0.0
 40
0
 41
0
  0
VERTEX
  8
0
 10
5.69217
 20
7.34754
 30
0.0
 40
0
 41
0
  0
VERTEX
  8
0
 10
5.68457
 20
7.33768
 30
0.0
 40
0
 41
0
  0
VERTEX
  8
0
 10
5.68229
 20
7.32428
 30
0.0
 40
0
 41
0
  0
VERTEX
  8
0
 10
5.68229
 20
7.31976
 30
0.0
 40
0
 41
0
  0
VERTEX
  8
0
 10
5.68229
 20
7.317
 30
0.0
 40
0
 41
0
  0
VERTEX
  8
0
 10
5.67969
 20
7.30854
 30
0.0
 40
0
 41
0
  0
VERTEX
  8
0
 10
5.669
 20
7.30003
 30
0.0
 40
0
 41
0
  0
VERTEX
  8
0
 10
5.64567
 20
7.29417
 30
0.0
 40
0
 41
0
  0
VERTEX
  8
0
 10
5.60514
 20
7.29069
 30
0.0
 40
0
 41
0
  0
VERTEX
  8
0
 10
5.54286
 20
7.28944
 30
0.0
 40
0
 41
0
  0
VERTEX
  8
0
 10
5.45432
 20
7.29025
 30
0.0
 40
0
 41
0
  0
VERTEX
  8
0
 10
5.33501
 20
7.29292
 30
0.0
 40
0
 41
0
  0
VERTEX
  8
0
 10
5.21903
 20
7.29611
 30
0.0
 40
0
 41
0
  0
VERTEX
  8
0
 10
5.18039
 20
7.29719
 30
0.0
 40
0
 41
0
  0
VERTEX
  8
0
 10
5.12104
 20
7.29915
 30
0.0
 40
0
 41
0
  0
VERTEX
  8
0
 10
4.94303
 20
7.30626
 30
0.0
 40
0
 41
0
  0
VERTEX
  8
0
 10
4.70318
 20
7.31782
 30
0.0
 40
0
 41
0
  0
VERTEX
  8
0
 10
4.46724
 20
7.33143
 30
0.0
 40
0
 41
0
  0
VERTEX
  8
0
 10
4.24164
 20
7.34668
 30
0.0
 40
0
 41
0
  0
VERTEX
  8
0
 10
4.03282
 20
7.36307
 30
0.0
 40
0
 41
0
  0
VERTEX
  8
0
 10
3.84711
 20
7.38021
 30
0.0
 40
0
 41
0
  0
VERTEX
  8
0
 10
3.69097
 20
7.39763
 30
0.0
 40
0
 41
0
  0
VERTEX
  8
0
 10
3.60075
 20
7.40972
 30
0.0
 40
0
 41
0
  0
VERTEX
  8
0
 10
3.57086
 20
7.41476
 30
0.0
 40
0
 41
0
  0
VERTEX
  8
0
 10
3.54508
 20
7.419
 30
0.0
 40
0
 41
0
  0
VERTEX
  8
0
 10
3.4681
 20
7.43371
 30
0.0
 40
0
 41
0
  0
VERTEX
  8
0
 10
3.3374
 20
7.46089
 30
0.0
 40
0
 41
0
  0
VERTEX
  8
0
 10
3.19569
 20
7.49268
 30
0.0
 40
0
 41
0
  0
VERTEX
  8
0
 10
3.09375
 20
7.51699
 30
0.0
 40
0
 41
0
  0
VERTEX
  8
0
 10
3.0599
 20
7.5255
 30
0.0
 40
0
 41
0
  0
VERTEX
  8
0
 10
2.99192
 20
7.54269
 30
0.0
 40
0
 41
0
  0
VERTEX
  8
0
 10
2.78635
 20
7.58718
 30
0.0
 40
0
 41
0
  0
VERTEX
  8
0
 10
2.53657
 20
7.62696
 30
0.0
 40
0
 41
0
  0
VERTEX
  8
0
 10
2.30197
 20
7.646
 30
0.0
 40
0
 41
0
  0
VERTEX
  8
0
 10
2.13108
 20
7.64785
 30
0.0
 40
0
 41
0
  0
VERTEX
  8
0
 10
2.07428
 20
7.64529
 30
0.0
 40
0
 41
0
  0
VERTEX
  8
0
 10
2.05485
 20
7.64438
 30
0.0
 40
0
 41
0
  0
VERTEX
  8
0
 10
1.99669
 20
7.64133
 30
0.0
 40
0
 41
0
  0
VERTEX
  8
0
 10
1.93468
 20
7.63667
 30
0.0
 40
0
 41
0
  0
VERTEX
  8
0
 10
1.88238
 20
7.62961
 30
0.0
 40
0
 41
0
  0
VERTEX
  8
0
 10
1.83404
 20
7.61843
 30
0.0
 40
0
 41
0
  0
VERTEX
  8
0
 10
1.78381
 20
7.60146
 30
0.0
 40
0
 41
0
  0
VERTEX
  8
0
 10
1.72581
 20
7.57693
 30
0.0
 40
0
 41
0
  0
VERTEX
  8
0
 10
1.65424
 20
7.54312
 30
0.0
 40
0
 41
0
  0
VERTEX
  8
0
 10
1.58599
 20
7.5096
 30
0.0
 40
0
 41
0
  0
VERTEX
  8
0
 10
1.56332
 20
7.49832
 30
0.0
 40
0
 41
0
  0
VERTEX
  8
0
 10
1.50792
 20
7.47125
 30
0.0
 40
0
 41
0
  0
VERTEX
  8
0
 10
1.34489
 20
7.38374
 30
0.0
 40
0
 41
0
  0
VERTEX
  8
0
 10
1.16884
 20
7.27289
 30
0.0
 40
0
 41
0
  0
VERTEX
  8
0
 10
1.02669
 20
7.1595
 30
0.0
 40
0
 41
0
  0
VERTEX
  8
0
 10
0.936849
 20
7.06967
 30
0.0
 40
0
 41
0
  0
VERTEX
  8
0
 10
0.909993
 20
7.03717
 30
0.0
 40
0
 41
0
  0
VERTEX
  8
0
 10
0.899794
 20
7.02512
 30
0.0
 40
0
 41
0
  0
VERTEX
  8
0
 10
0.870335
 20
6.98796
 30
0.0
 40
0
 41
0
  0
VERTEX
  8
0
 10
0.826389
 20
6.92969
 30
0.0
 40
0
 41
0
  0
VERTEX
  8
0
 10
0.781196
 20
6.86708
 30
0.0
 40
0
 41
0
  0
VERTEX
  8
0
 10
0.737901
 20
6.80464
 30
0.0
 40
0
 41
0
  0
VERTEX
  8
0
 10
0.699544
 20
6.74696
 30
0.0
 40
0
 41
0
  0
VERTEX
  8
0
 10
0.669325
 20
6.69862
 30
0.0
 40
0
 41
0
  0
VERTEX
  8
0
 10
0.650282
 20
6.66422
 30
0.0
 40
0
 41
0
  0
VERTEX
  8
0
 10
0.644043
 20
6.65056
 30
0.0
 40
0
 41
0
  0
VERTEX
  8
0
 10
0.645508
 20
6.64833
 30
0.0
 40
0
 41
0
  0
VERTEX
  8
0
 10
0.646104
 20
6.64806
 30
0.0
 40
0
 41
0
  0
VERTEX
  8
0
 10
0.644097
 20
6.6396
 30
0.0
 40
0
 41
0
  0
VERTEX
  8
0
 10
0.63444
 20
6.61897
 30
0.0
 40
0
 41
0
  0
VERTEX
  8
0
 10
0.618435
 20
6.58985
 30
0.0
 40
0
 41
0
  0
VERTEX
  8
0
 10
0.603244
 20
6.56407
 30
0.0
 40
0
 41
0
  0
VERTEX
  8
0
 10
0.598036
 20
6.55561
 30
0.0
 40
0
 41
0
  0
VERTEX
  8
0
 10
0.591851
 20
6.54639
 30
0.0
 40
0
 41
0
  0
VERTEX
  8
0
 10
0.575412
 20
6.51708
 30
0.0
 40
0
 41
0
  0
VERTEX
  8
0
 10
0.556478
 20
6.47624
 30
0.0
 40
0
 41
0
  0
VERTEX
  8
0
 10
0.543024
 20
6.43832
 30
0.0
 40
0
 41
0
  0
VERTEX
  8
0
 10
0.537489
 20
6.41613
 30
0.0
 40
0
 41
0
  0
VERTEX
  8
0
 10
0.537001
 20
6.40864
 30
0.0
 40
0
 41
0
  0
VERTEX
  8
0
 10
0.535157
 20
6.39111
 30
0.0
 40
0
 41
0
  0
VERTEX
  8
0
 10
0.525988
 20
6.33871
 30
0.0
 40
0
 41
0
  0
VERTEX
  8
0
 10
0.508464
 20
6.26426
 30
0.0
 40
0
 41
0
  0
VERTEX
  8
0
 10
0.487088
 20
6.19536
 30
0.0
 40
0
 41
0
  0
VERTEX
  8
0
 10
0.4713
 20
6.15474
 30
0.0
 40
0
 41
0
  0
VERTEX
  8
0
 10
0.464681
 20
6.14187
 30
0.0
 40
0
 41
0
  0
VERTEX
  8
0
 10
0.459472
 20
6.1326
 30
0.0
 40
0
 41
0
  0
VERTEX
  8
0
 10
0.445475
 20
6.10374
 30
0.0
 40
0
 41
0
  0
VERTEX
  8
0
 10
0.438639
 20
6.08062
 30
0.0
 40
0
 41
0
  0
VERTEX
  8
0
 10
0.443685
 20
6.07232
 30
0.0
 40
0
 41
0
  0
VERTEX
  8
0
 10
0.456489
 20
6.07633
 30
0.0
 40
0
 41
0
  0
VERTEX
  8
0
 10
0.460232
 20
6.07856
 30
0.0
 40
0
 41
0
  0
VERTEX
  8
0
 10
0.463976
 20
6.081
 30
0.0
 40
0
 41
0
  0
VERTEX
  8
0
 10
0.477376
 20
6.08513
 30
0.0
 40
0
 41
0
  0
VERTEX
  8
0
 10
0.480524
 20
6.07172
 30
0.0
 40
0
 41
0
  0
VERTEX
  8
0
 10
0.468479
 20
6.03467
 30
0.0
 40
0
 41
0
  0
VERTEX
  8
0
 10
0.447374
 20
5.986
 30
0.0
 40
0
 41
0
  0
VERTEX
  8
0
 10
0.439888
 20
5.97
 30
0.0
 40
0
 41
0
  0
VERTEX
  8
0
 10
0.434679
 20
5.95876
 30
0.0
 40
0
 41
0
  0
VERTEX
  8
0
 10
0.420031
 20
5.92449
 30
0.0
 40
0
 41
0
  0
VERTEX
  8
0
 10
0.403157
 20
5.88081
 30
0.0
 40
0
 41
0
  0
VERTEX
  8
0
 10
0.389865
 20
5.84104
 30
0.0
 40
0
 41
0
  0
VERTEX
  8
0
 10
0.380479
 20
5.80724
 30
0.0
 40
0
 41
0
  0
VERTEX
  8
0
 10
0.375597
 20
5.78153
 30
0.0
 40
0
 41
0
  0
VERTEX
  8
0
 10
0.375651
 20
5.7659
 30
0.0
 40
0
 41
0
  0
VERTEX
  8
0
 10
0.381076
 20
5.76247
 30
0.0
 40
0
 41
0
  0
VERTEX
  8
0
 10
0.390028
 20
5.77029
 30
0.0
 40
0
 41
0
  0
VERTEX
  8
0
 10
0.392415
 20
5.77333
 30
0.0
 40
0
 41
0
  0
VERTEX
  8
0
 10
0.395182
 20
5.77707
 30
0.0
 40
0
 41
0
  0
VERTEX
  8
0
 10
0.404243
 20
5.7876
 30
0.0
 40
0
 41
0
  0
VERTEX
  8
0
 10
0.409614
 20
5.78917
 30
0.0
 40
0
 41
0
  0
VERTEX
  8
0
 10
0.408583
 20
5.77718
 30
0.0
 40
0
 41
0
  0
VERTEX
  8
0
 10
0.403429
 20
5.75726
 30
0.0
 40
0
 41
0
  0
VERTEX
  8
0
 10
0.401476
 20
5.75071
 30
0.0
 40
0
 41
0
  0
VERTEX
  8
0
 10
0.391276
 20
5.71436
 30
0.0
 40
0
 41
0
  0
VERTEX
  8
0
 10
0.361708
 20
5.60487
 30
0.0
 40
0
 41
0
  0
VERTEX
  8
0
 10
0.334472
 20
5.49078
 30
0.0
 40
0
 41
0
  0
VERTEX
  8
0
 10
0.315267
 20
5.38514
 30
0.0
 40
0
 41
0
  0
VERTEX
  8
0
 10
0.30306
 20
5.29486
 30
0.0
 40
0
 41
0
  0
VERTEX
  8
0
 10
0.299696
 20
5.26471
 30
0.0
 40
0
 41
0
  0
VERTEX
  8
0
 10
0.297037
 20
5.24317
 30
0.0
 40
0
 41
0
  0
VERTEX
  8
0
 10
0.28966
 20
5.17828
 30
0.0
 40
0
 41
0
  0
VERTEX
  8
0
 10
0.280761
 20
5.09179
 30
0.0
 40
0
 41
0
  0
VERTEX
  8
0
 10
0.273926
 20
5.01551
 30
0.0
 40
0
 41
0
  0
VERTEX
  8
0
 10
0.270833
 20
4.97353
 30
0.0
 40
0
 41
0
  0
VERTEX
  8
0
 10
0.27029
 20
4.95947
 30
0.0
 40
0
 41
0
  0
VERTEX
  8
0
 10
0.269803
 20
4.94808
 30
0.0
 40
0
 41
0
  0
VERTEX
  8
0
 10
0.265463
 20
4.91385
 30
0.0
 40
0
 41
0
  0
VERTEX
  8
0
 10
0.255588
 20
4.8654
 30
0.0
 40
0
 41
0
  0
VERTEX
  8
0
 10
0.242296
 20
4.81993
 30
0.0
 40
0
 41
0
  0
VERTEX
  8
0
 10
0.231771
 20
4.79199
 30
0.0
 40
0
 41
0
  0
VERTEX
  8
0
 10
0.227376
 20
4.78315
 30
0.0
 40
0
 41
0
  0
VERTEX
  8
0
 10
0.223253
 20
4.77576
 30
0.0
 40
0
 41
0
  0
VERTEX
  8
0
 10
0.212619
 20
4.75271
 30
0.0
 40
0
 41
0
  0
VERTEX
  8
0
 10
0.202746
 20
4.72467
 30
0.0
 40
0
 41
0
  0
VERTEX
  8
0
 10
0.198406
 20
4.7021
 30
0.0
 40
0
 41
0
  0
VERTEX
  8
0
 10
0.198622
 20
4.69092
 30
0.0
 40
0
 41
0
  0
VERTEX
  8
0
 10
0.200304
 20
4.68815
 30
0.0
 40
0
 41
0
  0
VERTEX
  8
0
 10
0.202528
 20
4.68479
 30
0.0
 40
0
 41
0
  0
VERTEX
  8
0
 10
0.201824
 20
4.669
 30
0.0
 40
0
 41
0
  0
VERTEX
  8
0
 10
0.194065
 20
4.63499
 30
0.0
 40
0
 41
0
  0
VERTEX
  8
0
 10
0.178657
 20
4.59082
 30
0.0
 40
0
 41
0
  0
VERTEX
  8
0
 10
0.163086
 20
4.55339
 30
0.0
 40
0
 41
0
  0
VERTEX
  8
0
 10
0.157389
 20
4.54113
 30
0.0
 40
0
 41
0
  0
VERTEX
  8
0
 10
0.151421
 20
4.5281
 30
0.0
 40
0
 41
0
  0
VERTEX
  8
0
 10
0.135308
 20
4.48822
 30
0.0
 40
0
 41
0
  0
VERTEX
  8
0
 10
0.12321
 20
4.44846
 30
0.0
 40
0
 41
0
  0
VERTEX
  8
0
 10
0.120822
 20
4.42225
 30
0.0
 40
0
 41
0
  0
VERTEX
  8
0
 10
0.12538
 20
4.41114
 30
0.0
 40
0
 41
0
  0
VERTEX
  8
0
 10
0.128038
 20
4.41
 30
0.0
 40
0
 41
0
  0
VERTEX
  8
0
 10
0.131022
 20
4.40929
 30
0.0
 40
0
 41
0
  0
VERTEX
  8
0
 10
0.137804
 20
4.39822
 30
0.0
 40
0
 41
0
  0
VERTEX
  8
0
 10
0.140192
 20
4.36794
 30
0.0
 40
0
 41
0
  0
VERTEX
  8
0
 10
0.135362
 20
4.31689
 30
0.0
 40
0
 41
0
  0
VERTEX
  8
0
 10
0.12679
 20
4.26124
 30
0.0
 40
0
 41
0
  0
VERTEX
  8
0
 10
0.123535
 20
4.24274
 30
0.0
 40
0
 41
0
  0
VERTEX
  8
0
 10
0.116157
 20
4.20546
 30
0.0
 40
0
 41
0
  0
VERTEX
  8
0
 10
0.104872
 20
4.01611
 30
0.0
 40
0
 41
0
  0
VERTEX
  8
0
 10
0.127441
 20
3.82449
 30
0.0
 40
0
 41
0
  0
VERTEX
  8
0
 10
0.137098
 20
3.78603
 30
0.0
 40
0
 41
0
  0
VERTEX
  8
0
 10
0.138943
 20
3.77875
 30
0.0
 40
0
 41
0
  0
VERTEX
  8
0
 10
0.145508
 20
3.75717
 30
0.0
 40
0
 41
0
  0
VERTEX
  8
0
 10
0.1537
 20
3.74989
 30
0.0
 40
0
 41
0
  0
VERTEX
  8
0
 10
0.166613
 20
3.76639
 30
0.0
 40
0
 41
0
  0
VERTEX
  8
0
 10
0.183594
 20
3.79801
 30
0.0
 40
0
 41
0
  0
VERTEX
  8
0
 10
0.189074
 20
3.80865
 30
0.0
 40
0
 41
0
  0
VERTEX
  8
0
 10
0.193033
 20
3.81711
 30
0.0
 40
0
 41
0
  0
VERTEX
  8
0
 10
0.205296
 20
3.84233
 30
0.0
 40
0
 41
0
  0
VERTEX
  8
0
 10
0.222385
 20
3.87646
 30
0.0
 40
0
 41
0
  0
VERTEX
  8
0
 10
0.238661
 20
3.90722
 30
0.0
 40
0
 41
0
  0
VERTEX
  8
0
 10
0.248753
 20
3.92503
 30
0.0
 40
0
 41
0
  0
VERTEX
  8
0
 10
0.252387
 20
3.93072
 30
0.0
 40
0
 41
0
  0
VERTEX
  8
0
 10
0.255697
 20
3.93685
 30
0.0
 40
0
 41
0
  0
VERTEX
  8
0
 10
0.265082
 20
3.95546
 30
0.0
 40
0
 41
0
  0
VERTEX
  8
0
 10
0.281467
 20
3.98926
 30
0.0
 40
0
 41
0
  0
VERTEX
  8
0
 10
0.2991
 20
4.02772
 30
0.0
 40
0
 41
0
  0
VERTEX
  8
0
 10
0.31174
 20
4.05664
 30
0.0
 40
0
 41
0
  0
VERTEX
  8
0
 10
0.315756
 20
4.06635
 30
0.0
 40
0
 41
0
  0
VERTEX
  8
0
 10
0.319933
 20
4.07617
 30
0.0
 40
0
 41
0
  0
VERTEX
  8
0
 10
0.333604
 20
4.10504
 30
0.0
 40
0
 41
0
  0
VERTEX
  8
0
 10
0.34706
 20
4.12631
 30
0.0
 40
0
 41
0
  0
VERTEX
  8
0
 10
0.356717
 20
4.13058
 30
0.0
 40
0
 41
0
  0
VERTEX
  8
0
 10
0.362414
 20
4.12158
 30
0.0
 40
0
 41
0
  0
VERTEX
  8
0
 10
0.363226
 20
4.11833
 30
0.0
 40
0
 41
0
  0
VERTEX
  8
0
 10
0.364475
 20
4.11361
 30
0.0
 40
0
 41
0
  0
VERTEX
  8
0
 10
0.370226
 20
4.09983
 30
0.0
 40
0
 41
0
  0
VERTEX
  8
0
 10
0.380479
 20
4.09571
 30
0.0
 40
0
 41
0
  0
VERTEX
  8
0
 10
0.397894
 20
4.10688
 30
0.0
 40
0
 41
0
  0
VERTEX
  8
0
 10
0.419542
 20
4.12722
 30
0.0
 40
0
 41
0
  0
VERTEX
  8
0
 10
0.42654
 20
4.13417
 30
0.0
 40
0
 41
0
  0
VERTEX
  8
0
 10
0.433376
 20
4.14193
 30
0.0
 40
0
 41
0
  0
VERTEX
  8
0
 10
0.450737
 20
4.16797
 30
0.0
 40
0
 41
0
  0
VERTEX
  8
0
 10
0.46951
 20
4.20936
 30
0.0
 40
0
 41
0
  0
VERTEX
  8
0
 10
0.483128
 20
4.2601
 30
0.0
 40
0
 41
0
  0
VERTEX
  8
0
 10
0.490506
 20
4.30632
 30
0.0
 40
0
 41
0
  0
VERTEX
  8
0
 10
0.492079
 20
4.32178
 30
0.0
 40
0
 41
0
  0
VERTEX
  8
0
 10
0.493761
 20
4.33513
 30
0.0
 40
0
 41
0
  0
VERTEX
  8
0
 10
0.499511
 20
4.37511
 30
0.0
 40
0
 41
0
  0
VERTEX
  8
0
 10
0.507596
 20
4.42583
 30
0.0
 40
0
 41
0
  0
VERTEX
  8
0
 10
0.5153
 20
4.46804
 30
0.0
 40
0
 41
0
  0
VERTEX
  8
0
 10
0.519749
 20
4.48964
 30
0.0
 40
0
 41
0
  0
VERTEX
  8
0
 10
0.521485
 20
4.49582
 30
0.0
 40
0
 41
0
  0
VERTEX
  8
0
 10
0.523383
 20
4.50157
 30
0.0
 40
0
 41
0
  0
VERTEX
  8
0
 10
0.529893
 20
4.51861
 30
0.0
 40
0
 41
0
  0
VERTEX
  8
0
 10
0.536404
 20
4.52501
 30
0.0
 40
0
 41
0
  0
VERTEX
  8
0
 10
0.543349
 20
4.51406
 30
0.0
 40
0
 41
0
  0
VERTEX
  8
0
 10
0.550836
 20
4.49203
 30
0.0
 40
0
 41
0
  0
VERTEX
  8
0
 10
0.553114
 20
4.4846
 30
0.0
 40
0
 41
0
  0
VERTEX
  8
0
 10
0.554471
 20
4.47965
 30
0.0
 40
0
 41
0
  0
VERTEX
  8
0
 10
0.560385
 20
4.46533
 30
0.0
 40
0
 41
0
  0
VERTEX
  8
0
 10
0.565539
 20
4.46935
 30
0.0
 40
0
 41
0
  0
VERTEX
  8
0
 10
0.569011
 20
4.49794
 30
0.0
 40
0
 41
0
  0
VERTEX
  8
0
 10
0.570856
 20
4.53879
 30
0.0
 40
0
 41
0
  0
VERTEX
  8
0
 10
0.571235
 20
4.5524
 30
0.0
 40
0
 41
0
  0
VERTEX
  8
0
 10
0.571669
 20
4.56603
 30
0.0
 40
0
 41
0
  0
VERTEX
  8
0
 10
0.574164
 20
4.60678
 30
0.0
 40
0
 41
0
  0
VERTEX
  8
0
 10
0.579428
 20
4.66347
 30
0.0
 40
0
 41
0
  0
VERTEX
  8
0
 10
0.586806
 20
4.7155
 30
0.0
 40
0
 41
0
  0
VERTEX
  8
0
 10
0.59299
 20
4.74604
 30
0.0
 40
0
 41
0
  0
VERTEX
  8
0
 10
0.596138
 20
4.75586
 30
0.0
 40
0
 41
0
  0
VERTEX
  8
0
 10
0.598958
 20
4.7666
 30
0.0
 40
0
 41
0
  0
VERTEX
  8
0
 10
0.606011
 20
4.80143
 30
0.0
 40
0
 41
0
  0
VERTEX
  8
0
 10
0.617567
 20
4.86774
 30
0.0
 40
0
 41
0
  0
VERTEX
  8
0
 10
0.629178
 20
4.94596
 30
0.0
 40
0
 41
0
  0
VERTEX
  8
0
 10
0.636882
 20
5.00678
 30
0.0
 40
0
 41
0
  0
VERTEX
  8
0
 10
0.639051
 20
5.02707
 30
0.0
 40
0
 41
0
  0
VERTEX
  8
0
 10
0.641331
 20
5.04856
 30
0.0
 40
0
 41
0
  0
VERTEX
  8
0
 10
0.651258
 20
5.11268
 30
0.0
 40
0
 41
0
  0
VERTEX
  8
0
 10
0.669271
 20
5.2029
 30
0.0
 40
0
 41
0
  0
VERTEX
  8
0
 10
0.690213
 20
5.28717
 30
0.0
 40
0
 41
0
  0
VERTEX
  8
0
 10
0.705404
 20
5.33826
 30
0.0
 40
0
 41
0
  0
VERTEX
  8
0
 10
0.711481
 20
5.35487
 30
0.0
 40
0
 41
0
  0
VERTEX
  8
0
 10
0.718479
 20
5.37343
 30
0.0
 40
0
 41
0
  0
VERTEX
  8
0
 10
0.73584
 20
5.4305
 30
0.0
 40
0
 41
0
  0
VERTEX
  8
0
 10
0.752442
 20
5.51036
 30
0.0
 40
0
 41
0
  0
VERTEX
  8
0
 10
0.762642
 20
5.60292
 30
0.0
 40
0
 41
0
  0
VERTEX
  8
0
 10
0.767253
 20
5.68815
 30
0.0
 40
0
 41
0
  0
VERTEX
  8
0
 10
0.768013
 20
5.71658
 30
0.0
 40
0
 41
0
  0
VERTEX
  8
0
 10
0.768718
 20
5.74582
 30
0.0
 40
0
 41
0
  0
VERTEX
  8
0
 10
0.77105
 20
5.83344
 30
0.0
 40
0
 41
0
  0
VERTEX
  8
0
 10
0.773762
 20
5.91982
 30
0.0
 40
0
 41
0
  0
VERTEX
  8
0
 10
0.776639
 20
5.97868
 30
0.0
 40
0
 41
0
  0
VERTEX
  8
0
 10
0.780165
 20
6.01303
 30
0.0
 40
0
 41
0
  0
VERTEX
  8
0
 10
0.784831
 20
6.02588
 30
0.0
 40
0
 41
0
  0
VERTEX
  8
0
 10
0.791178
 20
6.02018
 30
0.0
 40
0
 41
0
  0
VERTEX
  8
0
 10
0.799696
 20
5.99903
 30
0.0
 40
0
 41
0
  0
VERTEX
  8
0
 10
0.80816
 20
5.97368
 30
0.0
 40
0
 41
0
  0
VERTEX
  8
0
 10
0.810926
 20
5.96522
 30
0.0
 40
0
 41
0
  0
VERTEX
  8
0
 10
0.826768
 20
5.91624
 30
0.0
 40
0
 41
0
  0
VERTEX
  8
0
 10
0.873318
 20
5.76872
 30
0.0
 40
0
 41
0
  0
VERTEX
  8
0
 10
0.92231
 20
5.60385
 30
0.0
 40
0
 41
0
  0
VERTEX
  8
0
 10
0.959039
 20
5.46403
 30
0.0
 40
0
 41
0
  0
VERTEX
  8
0
 10
0.9847
 20
5.34272
 30
0.0
 40
0
 41
0
  0
VERTEX
  8
0
 10
1.00054
 20
5.2334
 30
0.0
 40
0
 41
0
  0
VERTEX
  8
0
 10
1.0077
 20
5.1295
 30
0.0
 40
0
 41
0
  0
VERTEX
  8
0
 10
1.00738
 20
5.02447
 30
0.0
 40
0
 41
0
  0
VERTEX
  8
0
 10
1.00298
 20
4.93994
 30
0.0
 40
0
 41
0
  0
VERTEX
  8
0
 10
1.00081
 20
4.91178
 30
0.0
 40
0
 41
0
  0
VERTEX
  8
0
 10
0.998481
 20
4.88292
 30
0.0
 40
0
 41
0
  0
VERTEX
  8
0
 10
0.990343
 20
4.79639
 30
0.0
 40
0
 41
0
  0
VERTEX
  8
0
 10
0.978353
 20
4.69943
 30
0.0
 40
0
 41
0
  0
VERTEX
  8
0
 10
0.963163
 20
4.61583
 30
0.0
 40
0
 41
0
  0
VERTEX
  8
0
 10
0.943197
 20
4.54047
 30
0.0
 40
0
 41
0
  0
VERTEX
  8
0
 10
0.916829
 20
4.46832
 30
0.0
 40
0
 41
0
  0
VERTEX
  8
0
 10
0.882542
 20
4.39426
 30
0.0
 40
0
 41
0
  0
VERTEX
  8
0
 10
0.838758
 20
4.31315
 30
0.0
 40
0
 41
0
  0
VERTEX
  8
0
 10
0.797797
 20
4.24317
 30
0.0
 40
0
 41
0
  0
VERTEX
  8
0
 10
0.783854
 20
4.22
 30
0.0
 40
0
 41
0
  0
VERTEX
  8
0
 10
0.766818
 20
4.19174
 30
0.0
 40
0
 41
0
  0
VERTEX
  8
0
 10
0.715657
 20
4.10704
 30
0.0
 40
0
 41
0
  0
VERTEX
  8
0
 10
0.66531
 20
4.01915
 30
0.0
 40
0
 41
0
  0
VERTEX
  8
0
 10
0.630046
 20
3.94368
 30
0.0
 40
0
 41
0
  0
VERTEX
  8
0
 10
0.607206
 20
3.86789
 30
0.0
 40
0
 41
0
  0
VERTEX
  8
0
 10
0.593967
 20
3.77924
 30
0.0
 40
0
 41
0
  0
VERTEX
  8
0
 10
0.587674
 20
3.66493
 30
0.0
 40
0
 41
0
  0
VERTEX
  8
0
 10
0.585558
 20
3.51243
 30
0.0
 40
0
 41
0
  0
VERTEX
  8
0
 10
0.585069
 20
3.35986
 30
0.0
 40
0
 41
0
  0
VERTEX
  8
0
 10
0.584907
 20
3.30897
 30
0.0
 40
0
 41
0
  0
VERTEX
  8
0
 10
0.584526
 20
3.24203
 30
0.0
 40
0
 41
0
  0
VERTEX
  8
0
 10
0.581381
 20
3.04101
 30
0.0
 40
0
 41
0
  0
VERTEX
  8
0
 10
0.573839
 20
2.83171
 30
0.0
 40
0
 41
0
  0
VERTEX
  8
0
 10
0.561632
 20
2.66781
 30
0.0
 40
0
 41
0
  0
VERTEX
  8
0
 10
0.549696
 20
2.56862
 30
0.0
 40
0
 41
0
  0
VERTEX
  8
0
 10
0.544162
 20
2.53581
 30
0.0
 40
0
 41
0
  0
VERTEX
  8
0
 10
0.538465
 20
2.50369
 30
0.0
 40
0
 41
0
  0
VERTEX
  8
0
 10
0.522678
 20
2.40707
 30
0.0
 40
0
 41
0
  0
VERTEX
  8
0
 10
0.51671
 20
2.32449
 30
0.0
 40
0
 41
0
  0
VERTEX
  8
0
 10
0.527289
 20
2.25549
 30
0.0
 40
0
 41
0
  0
VERTEX
  8
0
 10
0.547851
 20
2.18918
 30
0.0
 40
0
 41
0
  0
VERTEX
  8
0
 10
0.555393
 20
2.16732
 30
0.0
 40
0
 41
0
  0
VERTEX
  8
0
 10
0.562011
 20
2.14671
 30
0.0
 40
0
 41
0
  0
VERTEX
  8
0
 10
0.580132
 20
2.08421
 30
0.0
 40
0
 41
0
  0
VERTEX
  8
0
 10
0.590983
 20
2.02317
 30
0.0
 40
0
 41
0
  0
VERTEX
  8
0
 10
0.589085
 20
1.96642
 30
0.0
 40
0
 41
0
  0
VERTEX
  8
0
 10
0.579644
 20
1.91351
 30
0.0
 40
0
 41
0
  0
VERTEX
  8
0
 10
0.575737
 20
1.89606
 30
0.0
 40
0
 41
0
  0
VERTEX
  8
0
 10
0.57194
 20
1.87858
 30
0.0
 40
0
 41
0
  0
VERTEX
  8
0
 10
0.562011
 20
1.82585
 30
0.0
 40
0
 41
0
  0
VERTEX
  8
0
 10
0.559299
 20
1.77849
 30
0.0
 40
0
 41
0
  0
VERTEX
  8
0
 10
0.569336
 20
1.73964
 30
0.0
 40
0
 41
0
  0
VERTEX
  8
0
 10
0.587185
 20
1.70568
 30
0.0
 40
0
 41
0
  0
VERTEX
  8
0
 10
0.593858
 20
1.69476
 30
0.0
 40
0
 41
0
  0
VERTEX
  8
0
 10
0.605414
 20
1.67622
 30
0.0
 40
0
 41
0
  0
VERTEX
  8
0
 10
0.65115
 20
1.62739
 30
0.0
 40
0
 41
0
  0
VERTEX
  8
0
 10
0.725261
 20
1.57954
 30
0.0
 40
0
 41
0
  0
VERTEX
  8
0
 10
0.811578
 20
1.55371
 30
0.0
 40
0
 41
0
  0
VERTEX
  8
0
 10
0.88265
 20
1.54958
 30
0.0
 40
0
 41
0
  0
VERTEX
  8
0
 10
0.905817
 20
1.5524
 30
0.0
 40
0
 41
0
  0
VERTEX
  8
0
 10
0.918186
 20
1.55376
 30
0.0
 40
0
 41
0
  0
VERTEX
  8
0
 10
0.955296
 20
1.55881
 30
0.0
 40
0
 41
0
  0
VERTEX
  8
0
 10
0.992567
 20
1.56739
 30
0.0
 40
0
 41
0
  0
VERTEX
  8
0
 10
1.01845
 20
1.58014
 30
0.0
 40
0
 41
0
  0
VERTEX
  8
0
 10
1.0338
 20
1.59907
 30
0.0
 40
0
 41
0
  0
VERTEX
  8
0
 10
1.0395
 20
1.62619
 30
0.0
 40
0
 41
0
  0
VERTEX
  8
0
 10
1.03646
 20
1.66342
 30
0.0
 40
0
 41
0
  0
VERTEX
  8
0
 10
1.02555
 20
1.71278
 30
0.0
 40
0
 41
0
  0
VERTEX
  8
0
 10
1.01226
 20
1.76047
 30
0.0
 40
0
 41
0
  0
VERTEX
  8
0
 10
1.0076
 20
1.77626
 30
0.0
 40
0
 41
0
  0
VERTEX
  8
0
 10
0.999675
 20
1.80225
 30
0.0
 40
0
 41
0
  0
VERTEX
  8
0
 10
0.970865
 20
1.94271
 30
0.0
 40
0
 41
0
  0
VERTEX
  8
0
 10
0.9579
 20
2.06885
 30
0.0
 40
0
 41
0
  0
VERTEX
  8
0
 10
0.9579
 20
2.11083
 30
0.0
 40
0
 41
0
  0
VERTEX
  8
0
 10
0.9579
 20
2.12907
 30
0.0
 40
0
 41
0
  0
VERTEX
  8
0
 10
0.955946
 20
2.1836
 30
0.0
 40
0
 41
0
  0
VERTEX
  8
0
 10
0.950792
 20
2.25694
 30
0.0
 40
0
 41
0
  0
VERTEX
  8
0
 10
0.943576
 20
2.32226
 30
0.0
 40
0
 41
0
  0
VERTEX
  8
0
 10
0.937989
 20
2.35883
 30
0.0
 40
0
 41
0
  0
VERTEX
  8
0
 10
0.935331
 20
2.37082
 30
0.0
 40
0
 41
0
  0
VERTEX
  8
0
 10
0.932454
 20
2.38379
 30
0.0
 40
0
 41
0
  0
VERTEX
  8
0
 10
0.92909
 20
2.42372
 30
0.0
 40
0
 41
0
  0
VERTEX
  8
0
 10
0.927246
 20
2.50256
 30
0.0
 40
0
 41
0
  0
VERTEX
  8
0
 10
0.929525
 20
2.60215
 30
0.0
 40
0
 41
0
  0
VERTEX
  8
0
 10
0.935547
 20
2.71733
 30
0.0
 40
0
 41
0
  0
VERTEX
  8
0
 10
0.945096
 20
2.84289
 30
0.0
 40
0
 41
0
  0
VERTEX
  8
0
 10
0.957844
 20
2.97364
 30
0.0
 40
0
 41
0
  0
VERTEX
  8
0
 10
0.973525
 20
3.10439
 30
0.0
 40
0
 41
0
  0
VERTEX
  8
0
 10
0.986817
 20
3.19862
 30
0.0
 40
0
 41
0
  0
VERTEX
  8
0
 10
0.991863
 20
3.22987
 30
0.0
 40
0
 41
0
  0
VERTEX
  8
0
 10
0.996203
 20
3.25608
 30
0.0
 40
0
 41
0
  0
VERTEX
  8
0
 10
1.01259
 20
3.33415
 30
0.0
 40
0
 41
0
  0
VERTEX
  8
0
 10
1.03901
 20
3.428
 30
0.0
 40
0
 41
0
  0
VERTEX
  8
0
 10
1.07351
 20
3.51887
 30
0.0
 40
0
 41
0
  0
VERTEX
  8
0
 10
1.1065
 20
3.59071
 30
0.0
 40
0
 41
0
  0
VERTEX
  8
0
 10
1.11843
 20
3.61415
 30
0.0
 40
0
 41
0
  0
VERTEX
  8
0
 10
1.12788
 20
3.63226
 30
0.0
 40
0
 41
0
  0
VERTEX
  8
0
 10
1.15674
 20
3.68636
 30
0.0
 40
0
 41
0
  0
VERTEX
  8
0
 10
1.1913
 20
3.74903
 30
0.0
 40
0
 41
0
  0
VERTEX
  8
0
 10
1.21821
 20
3.79508
 30
0.0
 40
0
 41
0
  0
VERTEX
  8
0
 10
1.23085
 20
3.81483
 30
0.0
 40
0
 41
0
  0
VERTEX
  8
0
 10
1.23372
 20
3.8176
 30
0.0
 40
0
 41
0
  0
VERTEX
  8
0
 10
1.23372
 20
3.8176
 30
0.0
 40
0
 41
0
  0
VERTEX
  8
0
 10
1.24306
 20
3.80567
 30
0.0
 40
0
 41
0
  0
VERTEX
  8
0
 10
1.24761
 20
3.74556
 30
0.0
 40
0
 41
0
  0
VERTEX
  8
0
 10
1.24745
 20
3.63672
 30
0.0
 40
0
 41
0
  0
VERTEX
  8
0
 10
1.2443
 20
3.51807
 30
0.0
 40
0
 41
0
  0
VERTEX
  8
0
 10
1.24284
 20
3.47851
 30
0.0
 40
0
 41
0
  0
VERTEX
  8
0
 10
1.24143
 20
3.43679
 30
0.0
 40
0
 41
0
  0
VERTEX
  8
0
 10
1.23741
 20
3.31158
 30
0.0
 40
0
 41
0
  0
VERTEX
  8
0
 10
1.23204
 20
3.12446
 30
0.0
 40
0
 41
0
  0
VERTEX
  8
0
 10
1.22748
 20
2.94032
 30
0.0
 40
0
 41
0
  0
VERTEX
  8
0
 10
1.22515
 20
2.82183
 30
0.0
 40
0
 41
0
  0
VERTEX
  8
0
 10
1.22466
 20
2.78228
 30
0.0
 40
0
 41
0
  0
VERTEX
  8
0
 10
1.21794
 20
2.44542
 30
0.0
 40
0
 41
0
  0
VERTEX
  8
0
 10
1.28125
 20
2.40022
 30
0.0
 40
0
 41
0
  0
VERTEX
  8
0
 10
1.29666
 20
2.38889
 30
0.0
 40
0
 41
0
  0
VERTEX
  8
0
 10
1.33762
 20
2.3476
 30
0.0
 40
0
 41
0
  0
VERTEX
  8
0
 10
1.37788
 20
2.28435
 30
0.0
 40
0
 41
0
  0
VERTEX
  8
0
 10
1.40201
 20
2.21007
 30
0.0
 40
0
 41
0
  0
VERTEX
  8
0
 10
1.4101
 20
2.14578
 30
0.0
 40
0
 41
0
  0
VERTEX
  8
0
 10
1.4101
 20
2.12435
 30
0.0
 40
0
 41
0
  0
VERTEX
  8
0
 10
1.4101
 20
2.11062
 30
0.0
 40
0
 41
0
  0
VERTEX
  8
0
 10
1.41265
 20
2.06928
 30
0.0
 40
0
 41
0
  0
VERTEX
  8
0
 10
1.42393
 20
2.02946
 30
0.0
 40
0
 41
0
  0
VERTEX
  8
0
 10
1.44917
 20
1.99468
 30
0.0
 40
0
 41
0
  0
VERTEX
  8
0
 10
1.48221
 20
1.96431
 30
0.0
 40
0
 41
0
  0
VERTEX
  8
0
 10
1.49376
 20
1.95481
 30
0.0
 40
0
 41
0
  0
VERTEX
  8
0
 10
1.5051
 20
1.94532
 30
0.0
 40
0
 41
0
  0
VERTEX
  8
0
 10
1.54107
 20
1.91911
 30
0.0
 40
0
 41
0
  0
VERTEX
  8
0
 10
1.58415
 20
1.89774
 30
0.0
 40
0
 41
0
  0
VERTEX
  8
0
 10
1.63226
 20
1.88743
 30
0.0
 40
0
 41
0
  0
VERTEX
  8
0
 10
1.67919
 20
1.88471
 30
0.0
 40
0
 41
0
  0
VERTEX
  8
0
 10
1.69487
 20
1.88471
 30
0.0
 40
0
 41
0
  0
VERTEX
  8
0
 10
1.71615
 20
1.88471
 30
0.0
 40
0
 41
0
  0
VERTEX
  8
0
 10
1.77994
 20
1.89079
 30
0.0
 40
0
 41
0
  0
VERTEX
  8
0
 10
1.86356
 20
1.90593
 30
0.0
 40
0
 41
0
  0
VERTEX
  8
0
 10
1.92725
 20
1.92572
 30
0.0
 40
0
 41
0
  0
VERTEX
  8
0
 10
1.95258
 20
1.94075
 30
0.0
 40
0
 41
0
  0
VERTEX
  8
0
 10
1.95258
 20
1.94575
 30
0.0
 40
0
 41
0
  0
VERTEX
  8
0
 10
1.95258
 20
1.94808
 30
0.0
 40
0
 41
0
  0
VERTEX
  8
0
 10
1.94819
 20
1.95503
 30
0.0
 40
0
 41
0
  0
VERTEX
  8
0
 10
1.93647
 20
1.97374
 30
0.0
 40
0
 41
0
  0
VERTEX
  8
0
 10
1.91917
 20
1.99881
 30
0.0
 40
0
 41
0
  0
VERTEX
  8
0
 10
1.90365
 20
2.02013
 30
0.0
 40
0
 41
0
  0
VERTEX
  8
0
 10
1.89833
 20
2.02707
 30
0.0
 40
0
 41
0
  0
VERTEX
  8
0
 10
1.89094
 20
2.03728
 30
0.0
 40
0
 41
0
  0
VERTEX
  8
0
 10
1.8699
 20
2.06988
 30
0.0
 40
0
 41
0
  0
VERTEX
  8
0
 10
1.83192
 20
2.13167
 30
0.0
 40
0
 41
0
  0
VERTEX
  8
0
 10
1.78928
 20
2.20454
 30
0.0
 40
0
 41
0
  0
VERTEX
  8
0
 10
1.75722
 20
2.26129
 30
0.0
 40
0
 41
0
  0
VERTEX
  8
0
 10
1.74685
 20
2.28033
 30
0.0
 40
0
 41
0
  0
VERTEX
  8
0
 10
1.73318
 20
2.30512
 30
0.0
 40
0
 41
0
  0
VERTEX
  8
0
 10
1.6945
 20
2.38075
 30
0.0
 40
0
 41
0
  0
VERTEX
  8
0
 10
1.66233
 20
2.46121
 30
0.0
 40
0
 41
0
  0
VERTEX
  8
0
 10
1.64415
 20
2.54167
 30
0.0
 40
0
 41
0
  0
VERTEX
  8
0
 10
1.63564
 20
2.61686
 30
0.0
 40
0
 41
0
  0
VERTEX
  8
0
 10
1.63385
 20
2.64199
 30
0.0
 40
0
 41
0
  0
VERTEX
  8
0
 10
1.63157
 20
2.66689
 30
0.0
 40
0
 41
0
  0
VERTEX
  8
0
 10
1.6149
 20
2.82292
 30
0.0
 40
0
 41
0
  0
VERTEX
  8
0
 10
1.59489
 20
2.97885
 30
0.0
 40
0
 41
0
  0
VERTEX
  8
0
 10
1.59093
 20
3.00364
 30
0.0
 40
0
 41
0
  0
VERTEX
  8
0
 10
1.58431
 20
3.0471
 30
0.0
 40
0
 41
0
  0
VERTEX
  8
0
 10
1.57394
 20
3.17876
 30
0.0
 40
0
 41
0
  0
VERTEX
  8
0
 10
1.57704
 20
3.34619
 30
0.0
 40
0
 41
0
  0
VERTEX
  8
0
 10
1.6001
 20
3.50342
 30
0.0
 40
0
 41
0
  0
VERTEX
  8
0
 10
1.62944
 20
3.61285
 30
0.0
 40
0
 41
0
  0
VERTEX
  8
0
 10
1.6429
 20
3.64789
 30
0.0
 40
0
 41
0
  0
VERTEX
  8
0
 10
1.65018
 20
3.66818
 30
0.0
 40
0
 41
0
  0
VERTEX
  8
0
 10
1.66971
 20
3.72982
 30
0.0
 40
0
 41
0
  0
VERTEX
  8
0
 10
1.70307
 20
3.84347
 30
0.0
 40
0
 41
0
  0
VERTEX
  8
0
 10
1.73856
 20
3.97412
 30
0.0
 40
0
 41
0
  0
VERTEX
  8
0
 10
1.76383
 20
4.07362
 30
0.0
 40
0
 41
0
  0
VERTEX
  8
0
 10
1.77175
 20
4.10688
 30
0.0
 40
0
 41
0
  0
VERTEX
  8
0
 10
1.84418
 20
4.41883
 30
0.0
 40
0
 41
0
  0
VERTEX
  8
0
 10
1.97532
 20
4.507
 30
0.0
 40
0
 41
0
  0
VERTEX
  8
0
 10
1.99056
 20
4.51753
 30
0.0
 40
0
 41
0
  0
VERTEX
  8
0
 10
2.03461
 20
4.55171
 30
0.0
 40
0
 41
0
  0
VERTEX
  8
0
 10
2.09879
 20
4.6065
 30
0.0
 40
0
 41
0
  0
VERTEX
  8
0
 10
2.16
 20
4.66471
 30
0.0
 40
0
 41
0
  0
VERTEX
  8
0
 10
2.19851
 20
4.70518
 30
0.0
 40
0
 41
0
  0
VERTEX
  8
0
 10
2.21039
 20
4.71946
 30
0.0
 40
0
 41
0
  0
VERTEX
  8
0
 10
2.2206
 20
4.73118
 30
0.0
 40
0
 41
0
  0
VERTEX
  8
0
 10
2.25211
 20
4.76557
 30
0.0
 40
0
 41
0
  0
VERTEX
  8
0
 10
2.28782
 20
4.79889
 30
0.0
 40
0
 41
0
  0
VERTEX
  8
0
 10
2.32042
 20
4.81944
 30
0.0
 40
0
 41
0
  0
VERTEX
  8
0
 10
2.35314
 20
4.82742
 30
0.0
 40
0
 41
0
  0
VERTEX
  8
0
 10
2.38889
 20
4.82286
 30
0.0
 40
0
 41
0
  0
VERTEX
  8
0
 10
2.43072
 20
4.80593
 30
0.0
 40
0
 41
0
  0
VERTEX
  8
0
 10
2.48172
 20
4.77675
 30
0.0
 40
0
 41
0
  0
VERTEX
  8
0
 10
2.52929
 20
4.74588
 30
0.0
 40
0
 41
0
  0
VERTEX
  8
0
 10
2.54497
 20
4.73529
 30
0.0
 40
0
 41
0
  0
VERTEX
  8
0
 10
2.56858
 20
4.71951
 30
0.0
 40
0
 41
0
  0
VERTEX
  8
0
 10
2.64236
 20
4.67617
 30
0.0
 40
0
 41
0
  0
VERTEX
  8
0
 10
2.76124
 20
4.61382
 30
0.0
 40
0
 41
0
  0
VERTEX
  8
0
 10
2.89594
 20
4.55067
 30
0.0
 40
0
 41
0
  0
VERTEX
  8
0
 10
3.0409
 20
4.48893
 30
0.0
 40
0
 41
0
  0
VERTEX
  8
0
 10
3.19038
 20
4.43104
 30
0.0
 40
0
 41
0
  0
VERTEX
  8
0
 10
3.33876
 20
4.37935
 30
0.0
 40
0
 41
0
  0
VERTEX
  8
0
 10
3.48047
 20
4.33604
 30
0.0
 40
0
 41
0
  0
VERTEX
  8
0
 10
3.57721
 20
4.3106
 30
0.0
 40
0
 41
0
  0
VERTEX
  8
0
 10
3.60981
 20
4.30354
 30
0.0
 40
0
 41
0
  0
VERTEX
  8
0
 10
3.62446
 20
4.30078
 30
0.0
 40
0
 41
0
  0
VERTEX
  8
0
 10
3.67768
 20
4.29417
 30
0.0
 40
0
 41
0
  0
VERTEX
  8
0
 10
3.78358
 20
4.28381
 30
0.0
 40
0
 41
0
  0
VERTEX
  8
0
 10
3.91271
 20
4.27436
 30
0.0
 40
0
 41
0
  0
VERTEX
  8
0
 10
4.01611
 20
4.26872
 30
0.0
 40
0
 41
0
  0
VERTEX
  8
0
 10
4.05062
 20
4.26742
 30
0.0
 40
0
 41
0
  0
VERTEX
  8
0
 10
4.09586
 20
4.26531
 30
0.0
 40
0
 41
0
  0
VERTEX
  8
0
 10
4.23178
 20
4.26096
 30
0.0
 40
0
 41
0
  0
VERTEX
  8
0
 10
4.36567
 20
4.26318
 30
0.0
 40
0
 41
0
  0
VERTEX
  8
0
 10
4.48389
 20
4.27599
 30
0.0
 40
0
 41
0
  0
VERTEX
  8
0
 10
4.58464
 20
4.29428
 30
0.0
 40
0
 41
0
  0
VERTEX
  8
0
 10
4.618
 20
4.30126
 30
0.0
 40
0
 41
0
  0
VERTEX
  8
0
 10
4.67188
 20
4.31222
 30
0.0
 40
0
 41
0
  0
VERTEX
  8
0
 10
4.83539
 20
4.33567
 30
0.0
 40
0
 41
0
  0
VERTEX
  8
0
 10
5.03456
 20
4.34733
 30
0.0
 40
0
 41
0
  0
VERTEX
  8
0
 10
5.21251
 20
4.33658
 30
0.0
 40
0
 41
0
  0
VERTEX
  8
0
 10
5.329
 20
4.31526
 30
0.0
 40
0
 41
0
  0
VERTEX
  8
0
 10
5.36638
 20
4.30354
 30
0.0
 40
0
 41
0
  0
VERTEX
  8
0
 10
5.38167
 20
4.29861
 30
0.0
 40
0
 41
0
  0
VERTEX
  8
0
 10
5.42854
 20
4.28603
 30
0.0
 40
0
 41
0
  0
VERTEX
  8
0
 10
5.49436
 20
4.27165
 30
0.0
 40
0
 41
0
  0
VERTEX
  8
0
 10
5.5555
 20
4.26193
 30
0.0
 40
0
 41
0
  0
VERTEX
  8
0
 10
5.59164
 20
4.25836
 30
0.0
 40
0
 41
0
  0
VERTEX
  8
0
 10
5.60374
 20
4.25836
 30
0.0
 40
0
 41
0
  0
VERTEX
  8
0
 10
5.70096
 20
4.25836
 30
0.0
 40
0
 41
0
  0
VERTEX
  8
0
 10
5.72803
 20
3.97125
 30
0.0
 40
0
 41
0
  0
VERTEX
  8
0
 10
5.73421
 20
3.90462
 30
0.0
 40
0
 41
0
  0
VERTEX
  8
0
 10
5.74713
 20
3.704
 30
0.0
 40
0
 41
0
  0
VERTEX
  8
0
 10
5.75711
 20
3.403
 30
0.0
 40
0
 41
0
  0
VERTEX
  8
0
 10
5.75819
 20
3.05664
 30
0.0
 40
0
 41
0
  0
VERTEX
  8
0
 10
5.75336
 20
2.75407
 30
0.0
 40
0
 41
0
  0
VERTEX
  8
0
 10
5.75065
 20
2.65321
 30
0.0
 40
0
 41
0
  0
VERTEX
  8
0
 10
5.73936
 20
2.23503
 30
0.0
 40
0
 41
0
  0
VERTEX
  8
0
 10
5.8049
 20
2.13997
 30
0.0
 40
0
 41
0
  0
VERTEX
  8
0
 10
5.81347
 20
2.1269
 30
0.0
 40
0
 41
0
  0
VERTEX
  8
0
 10
5.83789
 20
2.08653
 30
0.0
 40
0
 41
0
  0
VERTEX
  8
0
 10
5.85379
 20
2.0479
 30
0.0
 40
0
 41
0
  0
VERTEX
  8
0
 10
5.85476
 20
2.01351
 30
0.0
 40
0
 41
0
  0
VERTEX
  8
0
 10
5.84685
 20
1.98269
 30
0.0
 40
0
 41
0
  0
VERTEX
  8
0
 10
5.84332
 20
1.97271
 30
0.0
 40
0
 41
0
  0
VERTEX
  8
0
 10
5.8355
 20
1.95053
 30
0.0
 40
0
 41
0
  0
VERTEX
  8
0
 10
5.81967
 20
1.88112
 30
0.0
 40
0
 41
0
  0
VERTEX
  8
0
 10
5.82042
 20
1.80599
 30
0.0
 40
0
 41
0
  0
VERTEX
  8
0
 10
5.84619
 20
1.74192
 30
0.0
 40
0
 41
0
  0
VERTEX
  8
0
 10
5.88319
 20
1.69624
 30
0.0
 40
0
 41
0
  0
VERTEX
  8
0
 10
5.89763
 20
1.68332
 30
0.0
 40
0
 41
0
  0
VERTEX
  8
0
 10
5.90593
 20
1.67626
 30
0.0
 40
0
 41
0
  0
VERTEX
  8
0
 10
5.93181
 20
1.65619
 30
0.0
 40
0
 41
0
  0
VERTEX
  8
0
 10
5.96431
 20
1.6339
 30
0.0
 40
0
 41
0
  0
VERTEX
  8
0
 10
5.99169
 20
1.61882
 30
0.0
 40
0
 41
0
  0
VERTEX
  8
0
 10
6.00586
 20
1.61322
 30
0.0
 40
0
 41
0
  0
VERTEX
  8
0
 10
6.01064
 20
1.61322
 30
0.0
 40
0
 41
0
  0
VERTEX
  8
0
 10
6.01676
 20
1.61322
 30
0.0
 40
0
 41
0
  0
VERTEX
  8
0
 10
6.03515
 20
1.59771
 30
0.0
 40
0
 41
0
  0
VERTEX
  8
0
 10
6.04449
 20
1.56694
 30
0.0
 40
0
 41
0
  0
VERTEX
  8
0
 10
6.04449
 20
1.55664
 30
0.0
 40
0
 41
0
  0
VERTEX
  8
0
 10
6.04449
 20
1.54997
 30
0.0
 40
0
 41
0
  0
VERTEX
  8
0
 10
6.04883
 20
1.52979
 30
0.0
 40
0
 41
0
  0
VERTEX
  8
0
 10
6.06087
 20
1.49903
 30
0.0
 40
0
 41
0
  0
VERTEX
  8
0
 10
6.07883
 20
1.46832
 30
0.0
 40
0
 41
0
  0
VERTEX
  8
0
 10
6.09489
 20
1.44754
 30
0.0
 40
0
 41
0
  0
VERTEX
  8
0
 10
6.10101
 20
1.44135
 30
0.0
 40
0
 41
0
  0
VERTEX
  8
0
 10
6.10981
 20
1.43257
 30
0.0
 40
0
 41
0
  0
VERTEX
  8
0
 10
6.13861
 20
1.40847
 30
0.0
 40
0
 41
0
  0
VERTEX
  8
0
 10
6.18153
 20
1.39187
 30
0.0
 40
0
 41
0
  0
VERTEX
  8
0
 10
6.25201
 20
1.38764
 30
0.0
 40
0
 41
0
  0
VERTEX
  8
0
 10
6.34224
 20
1.39025
 30
0.0
 40
0
 41
0
  0
VERTEX
  8
0
 10
6.37229
 20
1.39154
 30
0.0
 40
0
 41
0
  0
VERTEX
  8
0
 10
6.39421
 20
1.39236
 30
0.0
 40
0
 41
0
  0
VERTEX
  8
0
 10
6.45996
 20
1.3966
 30
0.0
 40
0
 41
0
  0
VERTEX
  8
0
 10
6.53282
 20
1.40435
 30
0.0
 40
0
 41
0
  0
VERTEX
  8
0
 10
6.58529
 20
1.41417
 30
0.0
 40
0
 41
0
  0
VERTEX
  8
0
 10
6.60792
 20
1.42156
 30
0.0
 40
0
 41
0
  0
VERTEX
  8
0
 10
6.61187
 20
1.42551
 30
0.0
 40
0
 41
0
  0
VERTEX
  8
0
 10
6.61578
 20
1.42947
 30
0.0
 40
0
 41
0
  0
VERTEX
  8
0
 10
6.61751
 20
1.45122
 30
0.0
 40
0
 41
0
  0
VERTEX
  8
0
 10
6.60135
 20
1.50379
 30
0.0
 40
0
 41
0
  0
VERTEX
  8
0
 10
6.55935
 20
1.59244
 30
0.0
 40
0
 41
0
  0
VERTEX
  8
0
 10
6.50586
 20
1.69303
 30
0.0
 40
0
 41
0
  0
VERTEX
  8
0
 10
6.48753
 20
1.72624
 30
0.0
 40
0
 41
0
  0
VERTEX
  8
0
 10
6.47586
 20
1.74744
 30
0.0
 40
0
 41
0
  0
VERTEX
  8
0
 10
6.44125
 20
1.81114
 30
0.0
 40
0
 41
0
  0
VERTEX
  8
0
 10
6.40511
 20
1.87999
 30
0.0
 40
0
 41
0
  0
VERTEX
  8
0
 10
6.37765
 20
1.93658
 30
0.0
 40
0
 41
0
  0
VERTEX
  8
0
 10
6.35747
 20
1.9846
 30
0.0
 40
0
 41
0
  0
VERTEX
  8
0
 10
6.34326
 20
2.02767
 30
0.0
 40
0
 41
0
  0
VERTEX
  8
0
 10
6.33361
 20
2.06961
 30
0.0
 40
0
 41
0
  0
VERTEX
  8
0
 10
6.32715
 20
2.1141
 30
0.0
 40
0
 41
0
  0
VERTEX
  8
0
 10
6.3234
 20
2.15213
 30
0.0
 40
0
 41
0
  0
VERTEX
  8
0
 10
6.32249
 20
2.16476
 30
0.0
 40
0
 41
0
  0
VERTEX
  8
0
 10
6.32081
 20
2.18967
 30
0.0
 40
0
 41
0
  0
VERTEX
  8
0
 10
6.32394
 20
2.34597
 30
0.0
 40
0
 41
0
  0
VERTEX
  8
0
 10
6.34174
 20
2.52599
 30
0.0
 40
0
 41
0
  0
VERTEX
  8
0
 10
6.34739
 20
2.56272
 30
0.0
 40
0
 41
0
  0
VERTEX
  8
0
 10
6.35292
 20
2.59717
 30
0.0
 40
0
 41
0
  0
VERTEX
  8
0
 10
6.36447
 20
2.70139
 30
0.0
 40
0
 41
0
  0
VERTEX
  8
0
 10
6.38075
 20
2.89507
 30
0.0
 40
0
 41
0
  0
VERTEX
  8
0
 10
6.39447
 20
3.12608
 30
0.0
 40
0
 41
0
  0
VERTEX
  8
0
 10
6.40229
 20
3.31396
 30
0.0
 40
0
 41
0
  0
VERTEX
  8
0
 10
6.40397
 20
3.37657
 30
0.0
 40
0
 41
0
  0
VERTEX
  8
0
 10
6.40543
 20
3.42171
 30
0.0
 40
0
 41
0
  0
VERTEX
  8
0
 10
6.41021
 20
3.55697
 30
0.0
 40
0
 41
0
  0
VERTEX
  8
0
 10
6.41607
 20
3.69949
 30
0.0
 40
0
 41
0
  0
VERTEX
  8
0
 10
6.42225
 20
3.81179
 30
0.0
 40
0
 41
0
  0
VERTEX
  8
0
 10
6.42969
 20
3.90136
 30
0.0
 40
0
 41
0
  0
VERTEX
  8
0
 10
6.43907
 20
3.97581
 30
0.0
 40
0
 41
0
  0
VERTEX
  8
0
 10
6.45133
 20
4.04258
 30
0.0
 40
0
 41
0
  0
VERTEX
  8
0
 10
6.46724
 20
4.10938
 30
0.0
 40
0
 41
0
  0
VERTEX
  8
0
 10
6.48236
 20
4.16515
 30
0.0
 40
0
 41
0
  0
VERTEX
  8
0
 10
6.48763
 20
4.18365
 30
0.0
 40
0
 41
0
  0
VERTEX
  8
0
 10
6.493
 20
4.20275
 30
0.0
 40
0
 41
0
  0
VERTEX
  8
0
 10
6.50939
 20
4.25988
 30
0.0
 40
0
 41
0
  0
VERTEX
  8
0
 10
6.52692
 20
4.3176
 30
0.0
 40
0
 41
0
  0
VERTEX
  8
0
 10
6.54199
 20
4.35992
 30
0.0
 40
0
 41
0
  0
VERTEX
  8
0
 10
6.55647
 20
4.38997
 30
0.0
 40
0
 41
0
  0
VERTEX
  8
0
 10
6.57226
 20
4.41097
 30
0.0
 40
0
 41
0
  0
VERTEX
  8
0
 10
6.59119
 20
4.42594
 30
0.0
 40
0
 41
0
  0
VERTEX
  8
0
 10
6.61507
 20
4.43804
 30
0.0
 40
0
 41
0
  0
VERTEX
  8
0
 10
6.63807
 20
4.44743
 30
0.0
 40
0
 41
0
  0
VERTEX
  8
0
 10
6.64583
 20
4.45042
 30
0.0
 40
0
 41
0
  0
VERTEX
  8
0
 10
6.67589
 20
4.46175
 30
0.0
 40
0
 41
0
  0
VERTEX
  8
0
 10
6.75933
 20
4.51357
 30
0.0
 40
0
 41
0
  0
VERTEX
  8
0
 10
6.86714
 20
4.6166
 30
0.0
 40
0
 41
0
  0
VERTEX
  8
0
 10
6.97108
 20
4.76199
 30
0.0
 40
0
 41
0
  0
VERTEX
  8
0
 10
7.04997
 20
4.90365
 30
0.0
 40
0
 41
0
  0
VERTEX
  8
0
 10
7.07314
 20
4.95231
 30
0.0
 40
0
 41
0
  0
VERTEX
  8
0
 10
7.09011
 20
4.98774
 30
0.0
 40
0
 41
0
  0
VERTEX
  8
0
 10
7.14393
 20
5.09272
 30
0.0
 40
0
 41
0
  0
VERTEX
  8
0
 10
7.20899
 20
5.199
 30
0.0
 40
0
 41
0
  0
VERTEX
  8
0
 10
7.2864
 20
5.29725
 30
0.0
 40
0
 41
0
  0
VERTEX
  8
0
 10
7.36664
 20
5.38493
 30
0.0
 40
0
 41
0
  0
VERTEX
  8
0
 10
7.39415
 20
5.41342
 30
0.0
 40
0
 41
0
  0
VERTEX
  8
0
 10
7.43197
 20
5.45281
 30
0.0
 40
0
 41
0
  0
VERTEX
  8
0
 10
7.54883
 20
5.56776
 30
0.0
 40
0
 41
0
  0
VERTEX
  8
0
 10
7.6976
 20
5.70025
 30
0.0
 40
0
 41
0
  0
VERTEX
  8
0
 10
7.85568
 20
5.82389
 30
0.0
 40
0
 41
0
  0
VERTEX
  8
0
 10
7.99214
 20
5.92046
 30
0.0
 40
0
 41
0
  0
VERTEX
  8
0
 10
8.03842
 20
5.95144
 30
0.0
 40
0
 41
0
  0
VERTEX
  8
0
 10
8.05974
 20
5.96571
 30
0.0
 40
0
 41
0
  0
VERTEX
  8
0
 10
8.12414
 20
6.00808
 30
0.0
 40
0
 41
0
  0
VERTEX
  8
0
 10
8.19097
 20
6.04969
 30
0.0
 40
0
 41
0
  0
VERTEX
  8
0
 10
8.24333
 20
6.07715
 30
0.0
 40
0
 41
0
  0
VERTEX
  8
0
 10
8.28569
 20
6.09136
 30
0.0
 40
0
 41
0
  0
VERTEX
  8
0
 10
8.32243
 20
6.09315
 30
0.0
 40
0
 41
0
  0
VERTEX
  8
0
 10
8.35796
 20
6.08339
 30
0.0
 40
0
 41
0
  0
VERTEX
  8
0
 10
8.39671
 20
6.06304
 30
0.0
 40
0
 41
0
  0
VERTEX
  8
0
 10
8.43164
 20
6.04058
 30
0.0
 40
0
 41
0
  0
VERTEX
  8
0
 10
8.44314
 20
6.03282
 30
0.0
 40
0
 41
0
  0
VERTEX
  8
0
 10
8.45671
 20
6.02365
 30
0.0
 40
0
 41
0
  0
VERTEX
  8
0
 10
8.49576
 20
5.9936
 30
0.0
 40
0
 41
0
  0
VERTEX
  8
0
 10
8.55388
 20
5.94439
 30
0.0
 40
0
 41
0
  0
VERTEX
  8
0
 10
8.61035
 20
5.89139
 30
0.0
 40
0
 41
0
  0
VERTEX
  8
0
 10
8.6466
 20
5.85379
 30
0.0
 40
0
 41
0
  0
VERTEX
  8
0
 10
8.65793
 20
5.8406
 30
0.0
 40
0
 41
0
  0
VERTEX
  8
0
 10
8.66965
 20
5.82796
 30
0.0
 40
0
 41
0
  0
VERTEX
  8
0
 10
8.70714
 20
5.79204
 30
0.0
 40
0
 41
0
  0
VERTEX
  8
0
 10
8.76531
 20
5.74203
 30
0.0
 40
0
 41
0
  0
VERTEX
  8
0
 10
8.82514
 20
5.69661
 30
0.0
 40
0
 41
0
  0
VERTEX
  8
0
 10
8.8654
 20
5.66982
 30
0.0
 40
0
 41
0
  0
VERTEX
  8
0
 10
8.8795
 20
5.662
 30
0.0
 40
0
 41
0
  0
VERTEX
  8
0
 10
8.903
 20
5.64849
 30
0.0
 40
0
 41
0
  0
VERTEX
  8
0
 10
8.97151
 20
5.60417
 30
0.0
 40
0
 41
0
  0
VERTEX
  8
0
 10
9.03093
 20
5.55181
 30
0.0
 40
0
 41
0
  0
VERTEX
  8
0
 10
9.06831
 20
5.49354
 30
0.0
 40
0
 41
0
  0
VERTEX
  8
0
 10
9.08908
 20
5.43712
 30
0.0
 40
0
 41
0
  0
VERTEX
  8
0
 10
9.09429
 20
5.41781
 30
0.0
 40
0
 41
0
  0
VERTEX
  8
0
 10
9.10032
 20
5.39626
 30
0.0
 40
0
 41
0
  0
VERTEX
  8
0
 10
9.132
 20
5.33524
 30
0.0
 40
0
 41
0
  0
VERTEX
  8
0
 10
9.1926
 20
5.26215
 30
0.0
 40
0
 41
0
  0
VERTEX
  8
0
 10
9.26844
 20
5.20643
 30
0.0
 40
0
 41
0
  0
VERTEX
  8
0
 10
9.3304
 20
5.17985
 30
0.0
 40
0
 41
0
  0
VERTEX
  8
0
 10
9.352
 20
5.17594
 30
0.0
 40
0
 41
0
  0
VERTEX
  8
0
 10
9.36313
 20
5.17367
 30
0.0
 40
0
 41
0
  0
VERTEX
  8
0
 10
9.39774
 20
5.17219
 30
0.0
 40
0
 41
0
  0
VERTEX
  8
0
 10
9.45514
 20
5.17796
 30
0.0
 40
0
 41
0
  0
VERTEX
  8
0
 10
9.52653
 20
5.19347
 30
0.0
 40
0
 41
0
  0
VERTEX
  8
0
 10
9.5925
 20
5.21203
 30
0.0
 40
0
 41
0
  0
VERTEX
  8
0
 10
9.61426
 20
5.21886
 30
0.0
 40
0
 41
0
  0
VERTEX
  8
0
 10
9.6404
 20
5.22706
 30
0.0
 40
0
 41
0
  0
VERTEX
  8
0
 10
9.71832
 20
5.2539
 30
0.0
 40
0
 41
0
  0
VERTEX
  8
0
 10
9.78239
 20
5.28526
 30
0.0
 40
0
 41
0
  0
VERTEX
  8
0
 10
9.82568
 20
5.32471
 30
0.0
 40
0
 41
0
  0
VERTEX
  8
0
 10
9.85764
 20
5.36871
 30
0.0
 40
0
 41
0
  0
VERTEX
  8
0
 10
9.86751
 20
5.38385
 30
0.0
 40
0
 41
0
  0
VERTEX
  8
0
 10
9.87424
 20
5.39442
 30
0.0
 40
0
 41
0
  0
VERTEX
  8
0
 10
9.89296
 20
5.42719
 30
0.0
 40
0
 41
0
  0
VERTEX
  8
0
 10
9.91379
 20
5.46897
 30
0.0
 40
0
 41
0
  0
VERTEX
  8
0
 10
9.92785
 20
5.50439
 30
0.0
 40
0
 41
0
  0
VERTEX
  8
0
 10
9.933
 20
5.52251
 30
0.0
 40
0
 41
0
  0
VERTEX
  8
0
 10
9.933
 20
5.52854
 30
0.0
 40
0
 41
0
  0
VERTEX
  8
0
 10
9.933
 20
5.53429
 30
0.0
 40
0
 41
0
  0
VERTEX
  8
0
 10
9.9369
 20
5.55138
 30
0.0
 40
0
 41
0
  0
VERTEX
  8
0
 10
9.94769
 20
5.58594
 30
0.0
 40
0
 41
0
  0
VERTEX
  8
0
 10
9.96354
 20
5.62679
 30
0.0
 40
0
 41
0
  0
VERTEX
  8
0
 10
9.97765
 20
5.65842
 30
0.0
 40
0
 41
0
  0
VERTEX
  8
0
 10
9.98281
 20
5.66872
 30
0.0
 40
0
 41
0
  0
VERTEX
  8
0
 10
10.0326
 20
5.77051
 30
0.0
 40
0
 41
0
  0
VERTEX
  8
0
 10
9.93989
 20
6.04856
 30
0.0
 40
0
 41
0
  0
VERTEX
  8
0
 10
9.92079
 20
6.10574
 30
0.0
 40
0
 41
0
  0
VERTEX
  8
0
 10
9.87158
 20
6.27994
 30
0.0
 40
0
 41
0
  0
VERTEX
  8
0
 10
9.82769
 20
6.49729
 30
0.0
 40
0
 41
0
  0
VERTEX
  8
0
 10
9.80539
 20
6.71804
 30
0.0
 40
0
 41
0
  0
VERTEX
  8
0
 10
9.80078
 20
6.89925
 30
0.0
 40
0
 41
0
  0
VERTEX
  8
0
 10
9.80197
 20
6.95958
 30
0.0
 40
0
 41
0
  0
VERTEX
  8
0
 10
9.80875
 20
7.20822
 30
0.0
 40
0
 41
0
  0
VERTEX
  8
0
 10
9.63238
 20
7.55638
 30
0.0
 40
0
 41
0
  0
VERTEX
  8
0
 10
9.61518
 20
7.59033
 30
0.0
 40
0
 41
0
  0
VERTEX
  8
0
 10
9.56537
 20
7.69303
 30
0.0
 40
0
 41
0
  0
VERTEX
  8
0
 10
9.5134
 20
7.80701
 30
0.0
 40
0
 41
0
  0
VERTEX
  8
0
 10
9.48139
 20
7.88667
 30
0.0
 40
0
 41
0
  0
VERTEX
  8
0
 10
9.4719
 20
7.91808
 30
0.0
 40
0
 41
0
  0
VERTEX
  8
0
 10
9.47418
 20
7.92031
 30
0.0
 40
0
 41
0
  0
VERTEX
  8
0
 10
9.4764
 20
7.92258
 30
0.0
 40
0
 41
0
  0
VERTEX
  8
0
 10
9.48714
 20
7.92899
 30
0.0
 40
0
 41
0
  0
VERTEX
  8
0
 10
9.51031
 20
7.94011
 30
0.0
 40
0
 41
0
  0
VERTEX
  8
0
 10
9.54025
 20
7.9521
 30
0.0
 40
0
 41
0
  0
VERTEX
  8
0
 10
9.56521
 20
7.96072
 30
0.0
 40
0
 41
0
  0
VERTEX
  8
0
 10
9.57363
 20
7.96322
 30
0.0
 40
0
 41
0
  0
VERTEX
  8
0
 10
9.59
 20
7.96843
 30
0.0
 40
0
 41
0
  0
VERTEX
  8
0
 10
9.63758
 20
7.98899
 30
0.0
 40
0
 41
0
  0
VERTEX
  8
0
 10
9.70236
 20
8.02724
 30
0.0
 40
0
 41
0
  0
VERTEX
  8
0
 10
9.77035
 20
8.08046
 30
0.0
 40
0
 41
0
  0
VERTEX
  8
0
 10
9.84407
 20
8.15121
 30
0.0
 40
0
 41
0
  0
VERTEX
  8
0
 10
9.92589
 20
8.24197
 30
0.0
 40
0
 41
0
  0
VERTEX
  8
0
 10
10.0184
 20
8.35525
 30
0.0
 40
0
 41
0
  0
VERTEX
  8
0
 10
10.124
 20
8.49365
 30
0.0
 40
0
 41
0
  0
VERTEX
  8
0
 10
10.2151
 20
8.61789
 30
0.0
 40
0
 41
0
  0
VERTEX
  8
0
 10
10.2451
 20
8.65956
 30
0.0
 40
0
 41
0
  0
VERTEX
  8
0
 10
10.256
 20
8.67503
 30
0.0
 40
0
 41
0
  0
VERTEX
  8
0
 10
10.2849
 20
8.72413
 30
0.0
 40
0
 41
0
  0
VERTEX
  8
0
 10
10.307
 20
8.77746
 30
0.0
 40
0
 41
0
  0
VERTEX
  8
0
 10
10.313
 20
8.8176
 30
0.0
 40
0
 41
0
  0
VERTEX
  8
0
 10
10.3047
 20
8.84272
 30
0.0
 40
0
 41
0
  0
VERTEX
  8
0
 10
10.2835
 20
8.85086
 30
0.0
 40
0
 41
0
  0
VERTEX
  8
0
 10
10.2511
 20
8.84017
 30
0.0
 40
0
 41
0
  0
VERTEX
  8
0
 10
10.2091
 20
8.80871
 30
0.0
 40
0
 41
0
  0
VERTEX
  8
0
 10
10.1707
 20
8.76882
 30
0.0
 40
0
 41
0
  0
VERTEX
  8
0
 10
10.1592
 20
8.7545
 30
0.0
 40
0
 41
0
  0
VERTEX
  8
0
 10
10.151
 20
8.74419
 30
0.0
 40
0
 41
0
  0
VERTEX
  8
0
 10
10.124
 20
8.71533
 30
0.0
 40
0
 41
0
  0
VERTEX
  8
0
 10
10.0828
 20
8.6785
 30
0.0
 40
0
 41
0
  0
VERTEX
  8
0
 10
10.0409
 20
8.648
 30
0.0
 40
0
 41
0
  0
VERTEX
  8
0
 10
10.013
 20
8.63189
 30
0.0
 40
0
 41
0
  0
VERTEX
  8
0
 10
10.0032
 20
8.62793
 30
0.0
 40
0
 41
0
  0
VERTEX
  8
0
 10
9.99181
 20
8.62343
 30
0.0
 40
0
 41
0
  0
VERTEX
  8
0
 10
9.95426
 20
8.6071
 30
0.0
 40
0
 41
0
  0
VERTEX
  8
0
 10
9.88189
 20
8.57482
 30
0.0
 40
0
 41
0
  0
VERTEX
  8
0
 10
9.79551
 20
8.53575
 30
0.0
 40
0
 41
0
  0
VERTEX
  8
0
 10
9.72737
 20
8.50489
 30
0.0
 40
0
 41
0
  0
VERTEX
  8
0
 10
9.70469
 20
8.49457
 30
0.0
 40
0
 41
0
  0
VERTEX
  8
0
 10
9.68468
 20
8.48535
 30
0.0
 40
0
 41
0
  0
VERTEX
  8
0
 10
9.62446
 20
8.45785
 30
0.0
 40
0
 41
0
  0
VERTEX
  8
0
 10
9.56256
 20
8.43039
 30
0.0
 40
0
 41
0
  0
VERTEX
  8
0
 10
9.51731
 20
8.41174
 30
0.0
 40
0
 41
0
  0
VERTEX
  8
0
 10
9.48703
 20
8.40136
 30
0.0
 40
0
 41
0
  0
VERTEX
  8
0
 10
9.47017
 20
8.39887
 30
0.0
 40
0
 41
0
  0
VERTEX
  8
0
 10
9.46496
 20
8.40369
 30
0.0
 40
0
 41
0
  0
VERTEX
  8
0
 10
9.46983
 20
8.41542
 30
0.0
 40
0
 41
0
  0
VERTEX
  8
0
 10
9.4796
 20
8.42919
 30
0.0
 40
0
 41
0
  0
VERTEX
  8
0
 10
9.48312
 20
8.43354
 30
0.0
 40
0
 41
0
  0
VERTEX
  8
0
 10
9.48719
 20
8.43826
 30
0.0
 40
0
 41
0
  0
VERTEX
  8
0
 10
9.49892
 20
8.45281
 30
0.0
 40
0
 41
0
  0
VERTEX
  8
0
 10
9.50114
 20
8.4599
 30
0.0
 40
0
 41
0
  0
VERTEX
  8
0
 10
9.48813
 20
8.45551
 30
0.0
 40
0
 41
0
  0
VERTEX
  8
0
 10
9.4656
 20
8.44422
 30
0.0
 40
0
 41
0
  0
VERTEX
  8
0
 10
9.45822
 20
8.44032
 30
0.0
 40
0
 41
0
  0
VERTEX
  8
0
 10
9.40169
 20
8.41092
 30
0.0
 40
0
 41
0
  0
VERTEX
  8
0
 10
9.45367
 20
8.4675
 30
0.0
 40
0
 41
0
  0
VERTEX
  8
0
 10
9.45958
 20
8.47418
 30
0.0
 40
0
 41
0
  0
VERTEX
  8
0
 10
9.47683
 20
8.49474
 30
0.0
 40
0
 41
0
  0
VERTEX
  8
0
 10
9.49214
 20
8.51551
 30
0.0
 40
0
 41
0
  0
VERTEX
  8
0
 10
9.4994
 20
8.52983
 30
0.0
 40
0
 41
0
  0
VERTEX
  8
0
 10
9.49858
 20
8.53787
 30
0.0
 40
0
 41
0
  0
VERTEX
  8
0
 10
9.48958
 20
8.53965
 30
0.0
 40
0
 41
0
  0
VERTEX
  8
0
 10
9.47239
 20
8.53526
 30
0.0
 40
0
 41
0
  0
VERTEX
  8
0
 10
9.44683
 20
8.52479
 30
0.0
 40
0
 41
0
  0
VERTEX
  8
0
 10
9.42128
 20
8.51253
 30
0.0
 40
0
 41
0
  0
VERTEX
  8
0
 10
9.41292
 20
8.50825
 30
0.0
 40
0
 41
0
  0
VERTEX
  8
0
 10
9.40424
 20
8.50375
 30
0.0
 40
0
 41
0
  0
VERTEX
  8
0
 10
9.37787
 20
8.49072
 30
0.0
 40
0
 41
0
  0
VERTEX
  8
0
 10
9.34674
 20
8.47629
 30
0.0
 40
0
 41
0
  0
VERTEX
  8
0
 10
9.32319
 20
8.46658
 30
0.0
 40
0
 41
0
  0
VERTEX
  8
0
 10
9.31413
 20
8.463
 30
0.0
 40
0
 41
0
  0
VERTEX
  8
0
 10
9.31114
 20
8.463
 30
0.0
 40
0
 41
0
  0
VERTEX
  8
0
 10
9.31114
 20
8.463
 30
0.0
 40
0
 41
0
  0
VERTEX
  8
0
 10
9.31543
 20
8.47851
 30
0.0
 40
0
 41
0
  0
VERTEX
  8
0
 10
9.3335
 20
8.52094
 30
0.0
 40
0
 41
0
  0
VERTEX
  8
0
 10
9.36296
 20
8.58415
 30
0.0
 40
0
 41
0
  0
VERTEX
  8
0
 10
9.39171
 20
8.64268
 30
0.0
 40
0
 41
0
  0
VERTEX
  8
0
 10
9.40158
 20
8.662
 30
0.0
 40
0
 41
0
  0
VERTEX
  8
0
 10
9.41228
 20
8.68257
 30
0.0
 40
0
 41
0
  0
VERTEX
  8
0
 10
9.44217
 20
8.74528
 30
0.0
 40
0
 41
0
  0
VERTEX
  8
0
 10
9.477
 20
8.82617
 30
0.0
 40
0
 41
0
  0
VERTEX
  8
0
 10
9.50299
 20
8.89567
 30
0.0
 40
0
 41
0
  0
VERTEX
  8
0
 10
9.5146
 20
8.93272
 30
0.0
 40
0
 41
0
  0
VERTEX
  8
0
 10
9.51688
 20
8.94461
 30
0.0
 40
0
 41
0
  0
VERTEX
  8
0
 10
9.53043
 20
9.02821
 30
0.0
 40
0
 41
0
  0
VERTEX
  8
0
 10
9.42188
 20
9.02821
 30
0.0
 40
0
 41
0
  0
VERTEX
  8
0
 10
9.40896
 20
9.02789
 30
0.0
 40
0
 41
0
  0
VERTEX
  8
0
 10
9.37028
 20
9.02393
 30
0.0
 40
0
 41
0
  0
VERTEX
  8
0
 10
9.31754
 20
9.01421
 30
0.0
 40
0
 41
0
  0
VERTEX
  8
0
 10
9.26828
 20
8.99972
 30
0.0
 40
0
 41
0
  0
VERTEX
  8
0
 10
9.23682
 20
8.98671
 30
0.0
 40
0
 41
0
  0
VERTEX
  8
0
 10
9.22711
 20
8.98112
 30
0.0
 40
0
 41
0
  0
SEQEND
 8
0
  0
ENDSEC
  0
EOF
