<?xml version="1.0" encoding="utf-8"?>
<!-- Svg Vector Icons : http://www.onlinewebfonts.com/icon -->
<!DOCTYPE svg PUBLIC "-//W3C//DTD SVG 1.1//EN" "http://www.w3.org/Graphics/SVG/1.1/DTD/svg11.dtd">
<svg version="1.1" xmlns="http://www.w3.org/2000/svg" xmlns:xlink="http://www.w3.org/1999/xlink" x="0px" y="0px" viewBox="0 0 1000 1000" enable-background="new 0 0 1000 1000" xml:space="preserve">
<metadata> Svg Vector Icons : http://www.onlinewebfonts.com/icon </metadata>
<g><g transform="translate(0.000000,511.000000) scale(0.100000,-0.100000)"><path d="M8858,3731.9c-121.5-62.9-364.6-416.7-364.6-527.4c0-19.5-19.5-43.4-43.4-56.4c-45.6-23.9-54.3-10.8-43.4,62.9c2.2,17.4-8.7,26-30.4,17.4c-17.4-6.5-34.7-2.2-41.2,13c-4.3,13-32.5-15.2-65.1-60.8c-65.1-95.5-78.1-89-23.9,13c17.4,36.9,30.4,71.6,23.9,76c-4.3,4.3-67.3-45.6-141.1-112.9c-73.8-67.3-134.6-106.3-134.6-91.1c0,17.4,10.8,41.2,21.7,52.1c13,13,17.4,39.1,8.7,60.8c-13,34.7-17.4,34.7-58.6-2.2c-23.9-21.7-36.9-26-28.2-10.8c36.9,60.8-13,19.5-71.6-62.9l-65.1-86.8l-6.5,93.3l-6.5,93.3l-52.1-97.7c-49.9-93.3-54.3-95.5-67.3-43.4l-13,54.3l-58.6-62.9c-52.1-56.4-58.6-58.6-58.6-19.5c0,23.9,15.2,56.4,32.6,71.6c17.4,15.2,32.5,36.9,32.5,47.8c0,32.6-43.4-4.3-89-78.1c-32.6-54.3-41.3-58.6-41.3-23.9c0,36.9-6.5,32.6-45.6-21.7l-45.6-65.1l13,73.8c13,73.8,13,73.8-30.4,34.7c-23.9-21.7-47.7-71.6-56.4-110.7c-6.5-41.2-21.7-73.8-30.4-73.8c-26,0-45.6,65.1-28.2,91.2c6.5,15.2,2.2,17.4-10.8,8.7c-15.2-8.7-26-30.4-26-47.7c0-17.4-8.7-28.2-19.5-21.7c-10.8,6.5-30.4-30.4-43.4-84.6c-28.2-112.9-71.6-130.2-67.3-26c6.5,119.4,2.2,117.2-95.5-45.6c-93.3-156.3-93.3-158.4-106.3-93.3c-8.7,36.9-4.3,93.3,8.7,125.9l21.7,58.6l-47.7-41.2c-47.8-43.4-47.8-43.4-21.7,4.3c13,26,23.9,54.3,23.9,60.8c0,17.4-125.9-132.4-167.1-197.5c-23.9-39.1-26.1-39.1-26.1-2.2c-2.2,21.7,8.7,58.6,21.7,84.6c39.1,73.8,2.2,69.4-43.4-6.5c-26-41.2-45.6-60.8-45.6-45.6c0,56.4-47.8,21.7-82.5-60.8c-19.5-47.7-41.2-86.8-47.7-86.8c-6.5,0-28.2,30.4-47.8,65.1c-39.1,69.5-82.5,86.8-82.5,32.6c0-17.4-8.7-32.6-19.5-32.6c-13,0-23.9-36.9-28.2-80.3c-6.5-84.6-52.1-123.7-65.1-56.4c-6.5,32.6-15.2,26-43.4-26c-26-47.7-39.1-56.4-45.6-32.6c-6.5,17.4-17.4,47.7-21.7,65.1c-6.5,17.4-13,6.5-13-26c-2.2-60.8-45.6-110.7-45.6-52.1c0,47.7-39.1,43.4-47.8-2.2c-6.5-30.4-15.2-26-45.6,26l-34.7,65.1l-2.2-80.3c0-84.6-28.2-108.5-52.1-47.7c-19.5,52.1-78.1-2.2-78.1-76c-2.2-52.1-4.3-54.3-30.4-17.4c-28.2,36.9-30.4,34.7-41.2-6.5c-6.5-26-28.2-43.4-58.6-43.4c-28.2,0-41.2-8.7-30.4-23.9c10.8-19.5-2.2-21.7-43.4-10.8c-43.4,10.8-56.4,6.5-56.4-19.5c0-26-13-32.6-43.4-21.7c-32.5,10.9-43.4,4.3-43.4-23.9c0-32.6-36.9-34.7-481.8-21.7c-599,19.5-1289.1,69.5-1545.2,112.9c-106.3,17.4-327.7,65.1-490.5,106.3c-368.9,93.3-655.4,128-946.2,115c-223.5-10.9-227.9-10.9-490.5-141.1c-310.3-151.9-490.5-277.8-627.2-442.7c-93.3-110.7-262.6-360.3-253.9-373.3c4.3-2.2-17.4-43.4-45.6-89c-30.4-45.6-56.4-110.7-58.6-141.1c-8.7-82.5-41.2-201.8-69.4-256.1c-32.6-58.6-32.6-78.1-4.3-60.8c30.4,19.5,28.2-2.2-19.5-104.2c-54.3-117.2-82.5-236.6-45.6-188.8c19.5,26,21.7,21.7,8.7-21.7c-60.8-217-78.1-293-97.7-466.6c-13-106.3-26-238.7-28.2-293c-2.2-54.3-21.7-130.2-41.2-169.3c-21.7-39.1-32.6-80.3-26-91.2c8.7-13-10.9-76-41.2-141.1c-34.7-76-43.4-119.4-28.2-125.9c17.4-4.3,15.2-49.9-4.3-160.6c-28.2-143.2-23.9-290.8,13-438.4c13-49.9,13-49.9,49.9,21.7c19.5,41.2,45.6,93.3,60.8,117.2c13,23.9,41.2,82.5,60.8,130.2c26,60.8,39.1,76,45.6,49.9c8.7-32.6,15.2-30.4,60.8,15.2c34.7,39.1,54.3,93.3,62.9,180.1c8.7,67.3,21.7,143.3,28.2,167.1c13,39.1,15.2,39.1,30.4-10.8c10.8-39.1,15.2-21.7,17.4,65.1c2.2,65.1,10.8,154.1,23.9,195.3c10.8,41.2,30.4,158.4,41.2,260.4c10.8,102,43.4,243.1,69.5,314.7c36.9,97.7,49.9,184.5,54.3,347.2c8.7,340.7,8.7,338.6,41.2,238.7c178-549.1,206.2-707.5,182.3-1011.3c-26-323.4-52.1-405.8-208.3-664.1c-199.7-332.1-188.8-277.8-191-874.6c-2.2-386.3-13-588.1-39.1-742.2c-36.9-208.3-36.9-214.8,10.8-353.8c41.2-128.1,43.4-154.1,19.5-260.4c-23.9-110.7-23.9-125.9,17.4-193.2c60.8-97.7,175.8-151.9,299.5-136.7c143.2,15.2,151.9,32.6,97.7,214.9c-30.4,99.8-47.7,219.2-47.7,321.2c0,89-10.9,201.8-21.7,249.6c-21.7,97.7,4.3,514.4,54.3,824.7c23.9,143.2,56.4,240.9,121.5,368.9c49.9,95.5,99.8,184.5,110.7,195.3c15.2,15.2,17.4-91.2,8.7-325.5c-6.5-191-15.2-492.7-17.4-668.4l-6.5-323.4l60.8-43.4c82.5-60.8,123.7-147.6,123.7-264.8c0-84.6,8.7-104.2,80.3-162.8c67.3-56.4,99.8-67.3,193.1-67.3c102,0,247.4,34.7,247.4,58.6c0,4.4-23.9,41.2-52.1,78.1c-28.2,39.1-93.3,147.6-145.4,243.1c-82.5,149.8-97.7,197.5-108.5,347.2c-8.7,95.5-26,251.8-41.2,347.2c-34.7,227.9-17.4,442.8,49.9,618.5c28.2,78.1,84.6,275.6,123.7,440.6l69.5,299.5l125.9,84.6c69.5,47.8,171.5,138.9,225.7,204c117.2,134.5,141.1,136.7,321.2,15.2c217-145.4,711.8-347.2,1022.2-414.5c56.4-10.8,247.4-28.2,423.2-34.7c275.6-13,349.4-8.7,544.7,32.5c288.7,58.6,538.2,58.6,718.4,2.2c73.8-23.9,178-43.4,227.9-43.4h93.3l26-275.6c30.4-325.5,36.9-707.5,21.7-1265.3l-10.8-401.5l62.9-91.2c54.3-82.5,58.6-99.8,36.9-160.6c-45.6-130.2-30.4-204,52.1-277.8c43.4-36.9,91.2-67.3,108.5-67.3c19.5,0,32.5-21.7,32.5-54.3c0-30.4,23.9-80.3,54.3-110.7c54.3-54.3,65.1-56.4,260.4-47.8c119.4,4.4,214.9,17.4,230,32.6c19.5,19.5-6.5,84.6-119.4,288.7c-132.4,240.9-147.6,280-158.4,421c-6.5,95.5,2.2,240.9,23.9,382c21.7,134.6,45.6,455.8,54.3,781.3c17.4,516.5,21.7,568.6,80.3,774.8c62.9,221.4,62.9,221.4,151.9,256.1c149.8,56.4,280,208.3,410.2,481.8c102,212.7,143.2,271.3,308.2,442.7c208.3,217,362.4,345.1,618.5,516.5c247.4,164.9,256.1,167.1,388.5,78.1c60.8-41.2,154.1-123.7,206.2-184.5c54.3-58.6,149.8-136.7,212.7-171.5c143.2-82.5,175.8-121.5,206.2-234.4c30.4-108.5,138.9-212.7,247.4-232.2c52.1-10.8,128.1,2.2,251.8,41.2c167.1,52.1,182.3,65.1,243.1,158.4c34.7,54.3,62.9,117.2,62.9,138.9c0,19.5,21.7,82.5,47.8,134.6l47.8,97.7l-89,266.9c-104.2,312.5-138.9,544.7-132.4,874.6l6.5,238.7l-169.3,334.2c-93.3,184.5-160.6,340.7-151.9,349.4c8.7,8.7,52.1,28.2,95.5,41.2c165,52.1,312.5,206.2,644.6,668.5c125.9,178,54.2,260.4-82.5,91.1c-39.1-49.9-106.3-104.2-149.8-121.5c-43.4-17.4-171.4-76-286.5-128c-230.1-106.3-256.1-112.8-212.7-58.6c28.2,32.6,26,32.6-23.9,6.5l-54.3-28.2l49.9,54.3c69.5,78.1,58.6,89-39.1,39.1c-45.6-23.9-91.2-43.4-97.7-43.4c-4.3,0,32.6,84.6,86.8,191c54.3,104.2,102,225.7,110.7,271.3l13,80.3h-104.2C8981.7,3775.3,8903.6,3758,8858,3731.9z"/></g></g>
</svg>