M48
;DRILL file {KiCad (5.0.0)} date 09/25/19 18:41:51
;FORMAT={-:-/ absolute / inch / decimal}
FMAT,2
INCH,TZ
T1C0.0295
T2C0.0315
T3C0.0354
T4C0.0394
T5C0.0433
T6C0.0472
T7C0.0551
T8C0.1969
T9C0.0787
T10C0.1260
%
G90
G05
M72
T1
X5.425Y-2.3
X5.55Y-1.9
X5.55Y-2.3
X6.2Y-1.05
X6.6Y-1.05
X6.45Y-1.2
X6.85Y-1.2
X5.425Y-1.9
X5.2Y-0.9
X5.2Y-1.
T2
X2.1Y-2.075
X2.1Y-2.
X2.275Y-2.5591
X2.375Y-2.
X2.45Y-2.075
X3.475Y-2.0173
X3.775Y-0.8
X4.675Y-2.4
X4.675Y-3.15
X4.685Y-2.475
X4.685Y-3.075
X4.7047Y-2.55
X4.7047Y-2.625
X4.7047Y-2.7
X4.7047Y-2.775
X4.7047Y-2.85
X4.7047Y-2.925
X4.7047Y-3.
X4.9409Y-2.5512
X4.9409Y-2.6262
X4.9409Y-2.7012
X4.9409Y-2.7762
X4.9409Y-2.8512
X4.9409Y-2.9262
X4.9409Y-3.0012
X4.9606Y-2.4762
X4.9606Y-3.0762
X4.9707Y-2.4012
X4.9707Y-3.1512
X5.2Y-1.4
X5.725Y-2.975
X5.775Y-2.425
X5.8Y-2.175
X5.875Y-1.5
X6.5Y-1.5
X6.5Y-1.8
X5.1Y-1.825
X5.1787Y-1.825
X5.35Y-0.8
X5.35Y-0.8787
X6.05Y-0.75
X6.45Y-0.75
X5.45Y-2.55
X5.45Y-2.65
X5.45Y-2.75
X5.7Y-1.2
X5.7Y-1.6
X6.Y-1.9
X6.Y-2.2
X6.1Y-1.9
X6.1Y-2.2
X6.2Y-1.9
X6.2Y-2.2
X6.3Y-1.9
X6.3Y-2.2
X3.85Y-0.225
X3.95Y-0.225
X4.05Y-0.225
X6.15Y-0.3
X6.15Y-0.4
X6.15Y-0.5
X6.15Y-0.6
X6.45Y-0.3
X6.45Y-0.4
X6.45Y-0.5
X6.45Y-0.6
X5.9Y-0.6781
X5.9Y-0.875
X3.075Y-1.775
X3.475Y-1.775
X4.2Y-0.4
X4.2Y-0.8
X5.325Y-1.2
X5.325Y-1.6
X6.0016Y-2.425
X6.1Y-2.425
X5.575Y-1.2
X5.575Y-1.6
X2.275Y-1.65
X2.675Y-1.65
X6.Y-2.55
X6.Y-2.85
X6.1Y-2.55
X6.1Y-2.85
X6.2Y-2.55
X6.2Y-2.85
X6.3Y-2.55
X6.3Y-2.85
X5.9Y-3.05
X6.3Y-3.05
X5.325Y-1.775
X5.4234Y-1.775
X3.075Y-1.9
X3.475Y-1.9
X6.05Y-0.875
X6.45Y-0.875
X5.675Y-1.9
X5.675Y-2.3
X5.8Y-1.9
X5.8Y-2.3
X5.9Y-1.7
X5.9984Y-1.7
X5.85Y-1.1016
X5.85Y-1.2
X3.075Y-1.65
X3.475Y-1.65
X2.275Y-1.9
X2.675Y-1.9
X6.Y-1.2
X6.Y-1.5
X6.1Y-1.2
X6.1Y-1.5
X6.2Y-1.2
X6.2Y-1.5
X6.3Y-1.2
X6.3Y-1.5
X5.45Y-1.2
X5.45Y-1.6
X2.275Y-1.775
X2.675Y-1.775
T3
X1.9685Y-2.5591
X2.0685Y-2.5591
X1.9685Y-0.9843
X2.0685Y-0.9843
X5.675Y-2.55
X5.7734Y-2.7469
X5.8719Y-2.55
T4
X6.75Y-0.725
X6.75Y-0.8628
X2.7756Y-2.2638
X2.874Y-2.2638
X2.9724Y-2.2638
X2.7756Y-1.2795
X2.874Y-1.2795
X2.9724Y-1.2795
X1.975Y-1.275
X2.075Y-1.275
X1.975Y-2.275
X2.075Y-2.275
X6.75Y-0.3
X6.75Y-0.4378
X5.175Y-2.475
X5.175Y-2.575
X5.175Y-2.675
X5.175Y-2.775
X5.175Y-2.875
X5.175Y-2.975
X5.175Y-3.075
X4.275Y-2.475
X4.275Y-2.575
X4.275Y-2.675
X4.275Y-2.775
X4.275Y-2.875
X4.275Y-2.975
X4.275Y-3.075
X5.525Y-0.4
X5.625Y-0.4
X2.075Y-1.675
X2.075Y-1.775
X2.075Y-1.875
T5
X5.05Y-0.9
X5.05Y-1.
X5.05Y-1.1
T6
X5.525Y-0.7
X5.525Y-0.9
T7
X5.125Y-2.3
X5.125Y-2.075
T8
X3.937Y-1.3976
X3.937Y-2.1457
T9
X2.7008Y-2.5394
X3.0472Y-2.5394
X2.7008Y-1.0039
X3.0472Y-1.0039
T10
X1.752Y-0.189
X4.5276Y-3.3465
X1.752Y-3.3465
X5.9449Y-3.3465
X5.9449Y-0.1969
X4.5276Y-0.1969
T4
X5.0888Y-0.3606G85X5.0888Y-0.4394
G05
X5.1675Y-0.585G85X5.2463Y-0.585
G05
X5.325Y-0.3606G85X5.325Y-0.4394
G05
T0
M30
