G04 #@! TF.GenerationSoftware,KiCad,Pcbnew,(5.0.0)*
G04 #@! TF.CreationDate,2019-09-26T21:17:23+02:00*
G04 #@! TF.ProjectId,LM317 PSU,4C4D333137205053552E6B696361645F,rev?*
G04 #@! TF.SameCoordinates,Original*
G04 #@! TF.FileFunction,Soldermask,Bot*
G04 #@! TF.FilePolarity,Negative*
%FSLAX46Y46*%
G04 Gerber Fmt 4.6, Leading zero omitted, Abs format (unit mm)*
G04 Created by KiCad (PCBNEW (5.0.0)) date 09/26/19 21:17:23*
%MOMM*%
%LPD*%
G01*
G04 APERTURE LIST*
%ADD10C,10.160000*%
%ADD11C,2.800000*%
%ADD12C,3.200000*%
%ADD13O,1.500000X1.500000*%
%ADD14R,1.500000X1.500000*%
%ADD15O,1.600000X1.600000*%
%ADD16R,1.600000X1.600000*%
%ADD17O,1.700000X1.700000*%
%ADD18R,1.700000X1.700000*%
%ADD19C,1.600000*%
%ADD20C,2.000000*%
%ADD21R,2.000000X2.000000*%
%ADD22C,1.500000*%
%ADD23C,1.800000*%
%ADD24R,1.800000X1.800000*%
%ADD25R,3.500000X3.500000*%
%ADD26C,0.100000*%
%ADD27C,3.000000*%
%ADD28C,3.500000*%
%ADD29C,2.400000*%
%ADD30O,2.400000X2.400000*%
%ADD31C,4.000000*%
%ADD32C,1.620000*%
%ADD33R,2.000000X1.905000*%
%ADD34O,2.000000X1.905000*%
G04 APERTURE END LIST*
D10*
G04 #@! TO.C,J2*
X120000000Y-55500000D03*
G04 #@! TD*
G04 #@! TO.C,J1*
X120000000Y-74500000D03*
G04 #@! TD*
D11*
G04 #@! TO.C,J7*
X150175000Y-78420000D03*
G04 #@! TD*
D12*
G04 #@! TO.C,MH5*
X171000000Y-25000000D03*
G04 #@! TD*
G04 #@! TO.C,MH1*
X171000000Y-105000000D03*
G04 #@! TD*
D13*
G04 #@! TO.C,D7*
X152080000Y-45400000D03*
D14*
X152080000Y-42860000D03*
G04 #@! TD*
D11*
G04 #@! TO.C,OUT +*
X150175000Y-72705000D03*
G04 #@! TD*
D15*
G04 #@! TO.C,U5*
X172400000Y-68260000D03*
X180020000Y-75880000D03*
X174940000Y-68260000D03*
X177480000Y-75880000D03*
X177480000Y-68260000D03*
X174940000Y-75880000D03*
X180020000Y-68260000D03*
D16*
X172400000Y-75880000D03*
G04 #@! TD*
D17*
G04 #@! TO.C,J5*
X151445000Y-98105000D03*
X151445000Y-95565000D03*
X151445000Y-93025000D03*
X151445000Y-90485000D03*
X151445000Y-87945000D03*
X151445000Y-85405000D03*
D18*
X151445000Y-82865000D03*
G04 #@! TD*
D17*
G04 #@! TO.C,J4*
X128585000Y-98105000D03*
X128585000Y-95565000D03*
X128585000Y-93025000D03*
X128585000Y-90485000D03*
X128585000Y-87945000D03*
X128585000Y-85405000D03*
D18*
X128585000Y-82865000D03*
G04 #@! TD*
D12*
G04 #@! TO.C,MH3*
X135000000Y-105000000D03*
G04 #@! TD*
D19*
G04 #@! TO.C,C1*
X169860000Y-42225000D03*
X169860000Y-37225000D03*
G04 #@! TD*
D20*
G04 #@! TO.C,C2*
X191450000Y-27620000D03*
D21*
X191450000Y-31120000D03*
G04 #@! TD*
G04 #@! TO.C,C3*
X191450000Y-38415000D03*
D20*
X191450000Y-41915000D03*
G04 #@! TD*
D19*
G04 #@! TO.C,C4*
X168590000Y-47980000D03*
X168590000Y-50480000D03*
G04 #@! TD*
D16*
G04 #@! TO.C,C5*
X155890000Y-42320000D03*
D19*
X155890000Y-40320000D03*
G04 #@! TD*
G04 #@! TO.C,C6*
X155255000Y-65085000D03*
X157755000Y-65085000D03*
G04 #@! TD*
G04 #@! TO.C,C7*
X151540000Y-66355000D03*
D16*
X149540000Y-66355000D03*
G04 #@! TD*
D19*
G04 #@! TO.C,C8*
X174940000Y-81595000D03*
X172440000Y-81595000D03*
G04 #@! TD*
G04 #@! TO.C,C9*
X172360000Y-63180000D03*
X169860000Y-63180000D03*
G04 #@! TD*
D22*
G04 #@! TO.C,D1*
X120330000Y-25715000D03*
X122870000Y-25715000D03*
D14*
X117790000Y-25715000D03*
G04 #@! TD*
G04 #@! TO.C,D2*
X183830000Y-50480000D03*
D13*
X193990000Y-50480000D03*
G04 #@! TD*
G04 #@! TO.C,D3*
X187640000Y-46670000D03*
D14*
X177480000Y-46670000D03*
G04 #@! TD*
D23*
G04 #@! TO.C,D4*
X72540000Y-85000000D03*
D24*
X70000000Y-85000000D03*
G04 #@! TD*
G04 #@! TO.C,D5*
X70000000Y-45000000D03*
D23*
X72540000Y-45000000D03*
G04 #@! TD*
D14*
G04 #@! TO.C,D6*
X160970000Y-78420000D03*
D13*
X160970000Y-68260000D03*
G04 #@! TD*
D14*
G04 #@! TO.C,D8*
X157795000Y-78420000D03*
D13*
X157795000Y-68260000D03*
G04 #@! TD*
D18*
G04 #@! TO.C,F1*
X162875000Y-30160000D03*
D17*
X160335000Y-30160000D03*
G04 #@! TD*
D25*
G04 #@! TO.C,J3*
X155255000Y-30160000D03*
D26*
G36*
X150078513Y-28413611D02*
X150151318Y-28424411D01*
X150222714Y-28442295D01*
X150292013Y-28467090D01*
X150358548Y-28498559D01*
X150421678Y-28536398D01*
X150480795Y-28580242D01*
X150535330Y-28629670D01*
X150584758Y-28684205D01*
X150628602Y-28743322D01*
X150666441Y-28806452D01*
X150697910Y-28872987D01*
X150722705Y-28942286D01*
X150740589Y-29013682D01*
X150751389Y-29086487D01*
X150755000Y-29160000D01*
X150755000Y-31160000D01*
X150751389Y-31233513D01*
X150740589Y-31306318D01*
X150722705Y-31377714D01*
X150697910Y-31447013D01*
X150666441Y-31513548D01*
X150628602Y-31576678D01*
X150584758Y-31635795D01*
X150535330Y-31690330D01*
X150480795Y-31739758D01*
X150421678Y-31783602D01*
X150358548Y-31821441D01*
X150292013Y-31852910D01*
X150222714Y-31877705D01*
X150151318Y-31895589D01*
X150078513Y-31906389D01*
X150005000Y-31910000D01*
X148505000Y-31910000D01*
X148431487Y-31906389D01*
X148358682Y-31895589D01*
X148287286Y-31877705D01*
X148217987Y-31852910D01*
X148151452Y-31821441D01*
X148088322Y-31783602D01*
X148029205Y-31739758D01*
X147974670Y-31690330D01*
X147925242Y-31635795D01*
X147881398Y-31576678D01*
X147843559Y-31513548D01*
X147812090Y-31447013D01*
X147787295Y-31377714D01*
X147769411Y-31306318D01*
X147758611Y-31233513D01*
X147755000Y-31160000D01*
X147755000Y-29160000D01*
X147758611Y-29086487D01*
X147769411Y-29013682D01*
X147787295Y-28942286D01*
X147812090Y-28872987D01*
X147843559Y-28806452D01*
X147881398Y-28743322D01*
X147925242Y-28684205D01*
X147974670Y-28629670D01*
X148029205Y-28580242D01*
X148088322Y-28536398D01*
X148151452Y-28498559D01*
X148217987Y-28467090D01*
X148287286Y-28442295D01*
X148358682Y-28424411D01*
X148431487Y-28413611D01*
X148505000Y-28410000D01*
X150005000Y-28410000D01*
X150078513Y-28413611D01*
X150078513Y-28413611D01*
G37*
D27*
X149255000Y-30160000D03*
D26*
G36*
X153215765Y-33114213D02*
X153300704Y-33126813D01*
X153383999Y-33147677D01*
X153464848Y-33176605D01*
X153542472Y-33213319D01*
X153616124Y-33257464D01*
X153685094Y-33308616D01*
X153748718Y-33366282D01*
X153806384Y-33429906D01*
X153857536Y-33498876D01*
X153901681Y-33572528D01*
X153938395Y-33650152D01*
X153967323Y-33731001D01*
X153988187Y-33814296D01*
X154000787Y-33899235D01*
X154005000Y-33985000D01*
X154005000Y-35735000D01*
X154000787Y-35820765D01*
X153988187Y-35905704D01*
X153967323Y-35988999D01*
X153938395Y-36069848D01*
X153901681Y-36147472D01*
X153857536Y-36221124D01*
X153806384Y-36290094D01*
X153748718Y-36353718D01*
X153685094Y-36411384D01*
X153616124Y-36462536D01*
X153542472Y-36506681D01*
X153464848Y-36543395D01*
X153383999Y-36572323D01*
X153300704Y-36593187D01*
X153215765Y-36605787D01*
X153130000Y-36610000D01*
X151380000Y-36610000D01*
X151294235Y-36605787D01*
X151209296Y-36593187D01*
X151126001Y-36572323D01*
X151045152Y-36543395D01*
X150967528Y-36506681D01*
X150893876Y-36462536D01*
X150824906Y-36411384D01*
X150761282Y-36353718D01*
X150703616Y-36290094D01*
X150652464Y-36221124D01*
X150608319Y-36147472D01*
X150571605Y-36069848D01*
X150542677Y-35988999D01*
X150521813Y-35905704D01*
X150509213Y-35820765D01*
X150505000Y-35735000D01*
X150505000Y-33985000D01*
X150509213Y-33899235D01*
X150521813Y-33814296D01*
X150542677Y-33731001D01*
X150571605Y-33650152D01*
X150608319Y-33572528D01*
X150652464Y-33498876D01*
X150703616Y-33429906D01*
X150761282Y-33366282D01*
X150824906Y-33308616D01*
X150893876Y-33257464D01*
X150967528Y-33213319D01*
X151045152Y-33176605D01*
X151126001Y-33147677D01*
X151209296Y-33126813D01*
X151294235Y-33114213D01*
X151380000Y-33110000D01*
X153130000Y-33110000D01*
X153215765Y-33114213D01*
X153215765Y-33114213D01*
G37*
D28*
X152255000Y-34860000D03*
G04 #@! TD*
D17*
G04 #@! TO.C,MES1*
X70165000Y-52385000D03*
D18*
X72705000Y-52385000D03*
G04 #@! TD*
G04 #@! TO.C,MES2*
X72705000Y-77785000D03*
D17*
X70165000Y-77785000D03*
G04 #@! TD*
D12*
G04 #@! TO.C,MH2*
X64500000Y-105000000D03*
G04 #@! TD*
G04 #@! TO.C,MH4*
X135000000Y-25000000D03*
G04 #@! TD*
G04 #@! TO.C,MH8*
X64500000Y-24800000D03*
G04 #@! TD*
D14*
G04 #@! TO.C,Q1*
X158430000Y-89850000D03*
D22*
X158430000Y-84770000D03*
X158430000Y-87310000D03*
G04 #@! TD*
D15*
G04 #@! TO.C,R1*
X126680000Y-40320000D03*
D19*
X126680000Y-30160000D03*
G04 #@! TD*
D15*
G04 #@! TO.C,R2*
X164780000Y-60640000D03*
D19*
X164780000Y-50480000D03*
G04 #@! TD*
G04 #@! TO.C,R3*
X173670000Y-39050000D03*
D15*
X183830000Y-39050000D03*
G04 #@! TD*
G04 #@! TO.C,R4*
X173670000Y-42225000D03*
D19*
X183830000Y-42225000D03*
G04 #@! TD*
D29*
G04 #@! TO.C,R5*
X160335000Y-42860000D03*
D30*
X160335000Y-37780000D03*
G04 #@! TD*
D19*
G04 #@! TO.C,R6*
X161605000Y-50480000D03*
D15*
X161605000Y-60640000D03*
G04 #@! TD*
G04 #@! TO.C,R7*
X155255000Y-60640000D03*
D19*
X155255000Y-50480000D03*
G04 #@! TD*
G04 #@! TO.C,R8*
X158430000Y-60640000D03*
D15*
X158430000Y-50480000D03*
G04 #@! TD*
D19*
G04 #@! TO.C,R9*
X98105000Y-61910000D03*
D15*
X108265000Y-61910000D03*
G04 #@! TD*
G04 #@! TO.C,R10*
X108265000Y-65085000D03*
D19*
X98105000Y-65085000D03*
G04 #@! TD*
G04 #@! TO.C,R11*
X98105000Y-68260000D03*
D15*
X108265000Y-68260000D03*
G04 #@! TD*
G04 #@! TO.C,R12*
X77785000Y-61910000D03*
D19*
X87945000Y-61910000D03*
G04 #@! TD*
G04 #@! TO.C,R13*
X87945000Y-65085000D03*
D15*
X77785000Y-65085000D03*
G04 #@! TD*
D19*
G04 #@! TO.C,R14*
X87945000Y-68260000D03*
D15*
X77785000Y-68260000D03*
G04 #@! TD*
D19*
G04 #@! TO.C,R15*
X164145000Y-68260000D03*
D15*
X164145000Y-78420000D03*
G04 #@! TD*
G04 #@! TO.C,R16*
X167320000Y-68260000D03*
D19*
X167320000Y-78420000D03*
G04 #@! TD*
D15*
G04 #@! TO.C,R17*
X169860000Y-97470000D03*
D19*
X180020000Y-97470000D03*
G04 #@! TD*
D31*
G04 #@! TO.C,RV1*
X97400000Y-45500000D03*
X88600000Y-45500000D03*
D23*
X95500000Y-52500000D03*
X93000000Y-52500000D03*
X90500000Y-52500000D03*
G04 #@! TD*
G04 #@! TO.C,RV2*
X95500000Y-77500000D03*
X93000000Y-77500000D03*
X90500000Y-77500000D03*
D31*
X97400000Y-84500000D03*
X88600000Y-84500000D03*
G04 #@! TD*
D32*
G04 #@! TO.C,RV3*
X169145000Y-84770000D03*
X166645000Y-89770000D03*
X164145000Y-84770000D03*
G04 #@! TD*
D18*
G04 #@! TO.C,SW1*
X72705000Y-62545000D03*
D17*
X72705000Y-65085000D03*
X72705000Y-67625000D03*
G04 #@! TD*
D15*
G04 #@! TO.C,U1*
X176210000Y-35240000D03*
X183830000Y-27620000D03*
X176210000Y-32700000D03*
X183830000Y-30160000D03*
X176210000Y-30160000D03*
X183830000Y-32700000D03*
X176210000Y-27620000D03*
D16*
X183830000Y-35240000D03*
G04 #@! TD*
D15*
G04 #@! TO.C,U2*
X172400000Y-50480000D03*
X180020000Y-58100000D03*
X174940000Y-50480000D03*
X177480000Y-58100000D03*
X177480000Y-50480000D03*
X174940000Y-58100000D03*
X180020000Y-50480000D03*
D16*
X172400000Y-58100000D03*
G04 #@! TD*
G04 #@! TO.C,U3*
X172400000Y-92390000D03*
D15*
X180020000Y-84770000D03*
X174940000Y-92390000D03*
X177480000Y-84770000D03*
X177480000Y-92390000D03*
X174940000Y-84770000D03*
X180020000Y-92390000D03*
X172400000Y-84770000D03*
G04 #@! TD*
D33*
G04 #@! TO.C,U4*
X148270000Y-47940000D03*
D34*
X148270000Y-45400000D03*
X148270000Y-42860000D03*
G04 #@! TD*
M02*
